<?xml version="1.0" encoding="utf-8"?>
<!-- Generator: Adobe Illustrator 16.2.1, SVG Export Plug-In . SVG Version: 6.00 Build 0)  -->
<!DOCTYPE svg PUBLIC "-//W3C//DTD SVG 1.1//EN" "http://www.w3.org/Graphics/SVG/1.1/DTD/svg11.dtd">
<svg version="1.1" id="レイヤー_1" xmlns="http://www.w3.org/2000/svg" xmlns:xlink="http://www.w3.org/1999/xlink" x="0px"
	 y="0px" width="480px" height="700px" viewBox="0 0 480 700" enable-background="new 0 0 480 700" xml:space="preserve">
<rect id="pc_1_off" x="59" y="75.929" fill="#B3B3B3" stroke="#999999" stroke-miterlimit="10" width="28.709" height="14.818"/>
<rect id="pc_2_off" x="93.709" y="75.929" fill="#B3B3B3" stroke="#999999" stroke-miterlimit="10" width="28.709" height="14.818"/>
<rect id="pc_3_off" x="128.42" y="75.929" fill="#B3B3B3" stroke="#999999" stroke-miterlimit="10" width="28.709" height="14.818"/>
<rect id="pc_4_off" x="59" y="131.75" fill="#B3B3B3" stroke="#999999" stroke-miterlimit="10" width="28.709" height="14.818"/>
<rect id="pc_5_off" x="93.709" y="131.75" fill="#B3B3B3" stroke="#999999" stroke-miterlimit="10" width="28.709" height="14.818"/>
<rect id="pc_6_off" x="128.42" y="131.75" fill="#B3B3B3" stroke="#999999" stroke-miterlimit="10" width="28.709" height="14.818"/>
<rect id="pc_7_off" x="59" y="187.57" fill="#B3B3B3" stroke="#999999" stroke-miterlimit="10" width="28.709" height="14.818"/>
<rect id="pc_8_off" x="93.709" y="187.57" fill="#B3B3B3" stroke="#999999" stroke-miterlimit="10" width="28.709" height="14.818"/>
<rect id="pc_9_off" x="128.42" y="187.57" fill="#B3B3B3" stroke="#999999" stroke-miterlimit="10" width="28.709" height="14.818"/>
<rect id="pc_10_off" x="59" y="243.38" fill="#B3B3B3" stroke="#999999" stroke-miterlimit="10" width="28.709" height="14.818"/>
<rect id="pc_11_off" x="128.42" y="243.7" fill="#B3B3B3" stroke="#999999" stroke-miterlimit="10" width="28.709" height="14.818"/>
<rect id="pc_12_off" x="59" y="299.52" fill="#B3B3B3" stroke="#999999" stroke-miterlimit="10" width="28.709" height="14.818"/>
<rect id="pc_13_off" x="128.42" y="299.84" fill="#B3B3B3" stroke="#999999" stroke-miterlimit="10" width="28.709" height="14.818"/>
<rect id="pc_14_off" x="213.09" y="75.929" fill="#B3B3B3" stroke="#999999" stroke-miterlimit="10" width="28.709" height="14.818"/>
<rect id="pc_15_off" x="247.8" y="75.929" fill="#B3B3B3" stroke="#999999" stroke-miterlimit="10" width="28.709" height="14.818"/>
<rect id="pc_16_off" x="282.51" y="75.929" fill="#B3B3B3" stroke="#999999" stroke-miterlimit="10" width="28.709" height="14.818"/>
<rect id="pc_17_off" x="213.09" y="132.11" fill="#B3B3B3" stroke="#999999" stroke-miterlimit="10" width="28.709" height="14.818"/>
<rect id="pc_18_off" x="247.8" y="131.75" fill="#B3B3B3" stroke="#999999" stroke-miterlimit="10" width="28.709" height="14.818"/>
<rect id="pc_19_off" x="282.51" y="132.43" fill="#B3B3B3" stroke="#999999" stroke-miterlimit="10" width="28.709" height="14.818"/>
<rect id="pc_20_off" x="213.09" y="188.25" fill="#B3B3B3" stroke="#999999" stroke-miterlimit="10" width="28.709" height="14.818"/>
<rect id="pc_21_off" x="247.8" y="188.25" fill="#B3B3B3" stroke="#999999" stroke-miterlimit="10" width="28.709" height="14.818"/>
<rect id="pc_22_off" x="282.51" y="188.25" fill="#B3B3B3" stroke="#999999" stroke-miterlimit="10" width="28.709" height="14.818"/>
<rect id="pc_23_off" x="213.09" y="244.06" fill="#B3B3B3" stroke="#999999" stroke-miterlimit="10" width="28.709" height="14.818"/>
<rect id="pc_24_off" x="247.8" y="244.06" fill="#B3B3B3" stroke="#999999" stroke-miterlimit="10" width="28.709" height="14.818"/>
<rect id="pc_25_off" x="282.51" y="244.06" fill="#B3B3B3" stroke="#999999" stroke-miterlimit="10" width="28.709" height="14.818"/>
<rect id="pc_26_off" x="213.09" y="299.88" fill="#B3B3B3" stroke="#999999" stroke-miterlimit="10" width="28.709" height="14.818"/>
<rect id="pc_27_off" x="247.8" y="299.88" fill="#B3B3B3" stroke="#999999" stroke-miterlimit="10" width="28.709" height="14.818"/>
<rect id="pc_28_off" x="282.51" y="299.88" fill="#B3B3B3" stroke="#999999" stroke-miterlimit="10" width="28.709" height="14.818"/>
<rect id="pc_29_off" x="213.09" y="355.7" fill="#B3B3B3" stroke="#999999" stroke-miterlimit="10" width="28.709" height="14.817"/>
<rect id="pc_30_off" x="247.8" y="355.7" fill="#B3B3B3" stroke="#999999" stroke-miterlimit="10" width="28.709" height="14.817"/>
<rect id="pc_31_off" x="282.51" y="355.7" fill="#B3B3B3" stroke="#999999" stroke-miterlimit="10" width="28.709" height="14.817"/>
<rect id="pc_32_off" x="332.97" y="75.929" fill="#B3B3B3" stroke="#999999" stroke-miterlimit="10" width="28.709" height="14.818"/>
<rect id="pc_33_off" x="367.68" y="75.929" fill="#B3B3B3" stroke="#999999" stroke-miterlimit="10" width="28.709" height="14.818"/>
<rect id="pc_34_off" x="402.39" y="75.929" fill="#B3B3B3" stroke="#999999" stroke-miterlimit="10" width="28.709" height="14.818"/>
<rect id="pc_35_off" x="332.97" y="131.75" fill="#B3B3B3" stroke="#999999" stroke-miterlimit="10" width="28.709" height="14.818"/>
<rect id="pc_36_off" x="367.68" y="131.75" fill="#B3B3B3" stroke="#999999" stroke-miterlimit="10" width="28.709" height="14.818"/>
<rect id="pc_37_off" x="402.39" y="131.75" fill="#B3B3B3" stroke="#999999" stroke-miterlimit="10" width="28.709" height="14.818"/>
<rect id="pc_38_off" x="332.97" y="187.57" fill="#B3B3B3" stroke="#999999" stroke-miterlimit="10" width="28.709" height="14.818"/>
<rect id="pc_39_off" x="367.68" y="187.57" fill="#B3B3B3" stroke="#999999" stroke-miterlimit="10" width="28.709" height="14.818"/>
<rect id="pc_40_off" x="402.39" y="187.57" fill="#B3B3B3" stroke="#999999" stroke-miterlimit="10" width="28.709" height="14.818"/>
<rect id="pc_41_off" x="332.97" y="243.38" fill="#B3B3B3" stroke="#999999" stroke-miterlimit="10" width="28.709" height="14.818"/>
<rect id="pc_42_off" x="367.68" y="243.38" fill="#B3B3B3" stroke="#999999" stroke-miterlimit="10" width="28.709" height="14.818"/>
<rect id="pc_43_off" x="402.39" y="243.38" fill="#B3B3B3" stroke="#999999" stroke-miterlimit="10" width="28.709" height="14.818"/>
<rect id="pc_44_off" x="332.97" y="299.2" fill="#B3B3B3" stroke="#999999" stroke-miterlimit="10" width="28.709" height="14.818"/>
<rect id="pc_45_off" x="367.68" y="299.2" fill="#B3B3B3" stroke="#999999" stroke-miterlimit="10" width="28.709" height="14.818"/>
<rect id="pc_46_off" x="402.39" y="299.2" fill="#B3B3B3" stroke="#999999" stroke-miterlimit="10" width="28.709" height="14.818"/>
<rect id="pc_47_off" x="332.97" y="355.02" fill="#B3B3B3" stroke="#999999" stroke-miterlimit="10" width="28.709" height="14.818"/>
<rect id="pc_48_off" x="367.68" y="355.02" fill="#B3B3B3" stroke="#999999" stroke-miterlimit="10" width="28.709" height="14.818"/>
<rect id="pc_49_off" x="402.39" y="355.02" fill="#B3B3B3" stroke="#999999" stroke-miterlimit="10" width="28.709" height="14.818"/>
<rect id="pc_50_off" x="332.97" y="410.84" fill="#B3B3B3" stroke="#999999" stroke-miterlimit="10" width="28.709" height="14.818"/>
<rect id="pc_51_off" x="367.68" y="410.84" fill="#B3B3B3" stroke="#999999" stroke-miterlimit="10" width="28.709" height="14.818"/>
<rect id="pc_52_off" x="402.39" y="410.84" fill="#B3B3B3" stroke="#999999" stroke-miterlimit="10" width="28.709" height="14.818"/>
<rect id="pc_53_off" x="247.8" y="55.177" fill="#B3B3B3" stroke="#999999" stroke-miterlimit="10" width="28.709" height="14.818"/>
<g id="japanese_words">
	<text transform="matrix(1 0 0 1 223.9102 558.54)" font-family="'KozGoPr6N-Regular-83pv-RKSJ-H'" font-size="14">入口</text>
	<text transform="matrix(1 0 0 1 350 525.4697)" fill="#0000FF" font-family="'KozGoPr6N-Regular-83pv-RKSJ-H'" font-size="14">ＰＣ教室Ｂ→</text>
</g>
<g id="english_words" display="none">
	
		<text transform="matrix(1 0 0 1 223.9102 558.54)" display="inline" font-family="'KozGoPr6N-Regular-83pv-RKSJ-H'" font-size="14">Entrance</text>
	
		<text transform="matrix(1 0 0 1 300 525.4697)" display="inline" fill="#0000FF" font-family="'KozGoPr6N-Regular-83pv-RKSJ-H'" font-size="14">Machine Shop B→</text>
</g>
<line fill="none" stroke="#000000" stroke-width="3" stroke-miterlimit="10" x1="31.513" y1="31.344" x2="31.513" y2="581.75"/>
<line fill="none" stroke="#000000" stroke-width="3" stroke-miterlimit="10" x1="31.513" y1="32.847" x2="450.593" y2="32.847"/>
<line fill="none" stroke="#000000" stroke-width="3" stroke-miterlimit="10" x1="450.593" y1="31.375" x2="450.593" y2="581.688"/>
<line fill="none" stroke="#000000" stroke-width="3" stroke-miterlimit="10" x1="450.593" y1="580.247" x2="266.5" y2="580.247"/>
<line fill="none" stroke="#000000" stroke-width="3" stroke-miterlimit="10" x1="31.513" y1="580.247" x2="213.09" y2="580.247"/>
</svg>
