<?xml version="1.0" encoding="UTF-8" standalone="no"?>
<!-- Generator: Adobe Illustrator 16.2.1, SVG Export Plug-In . SVG Version: 6.00 Build 0)  -->
<!DOCTYPE svg  PUBLIC '-//W3C//DTD SVG 1.1//EN'  'http://www.w3.org/Graphics/SVG/1.1/DTD/svg11.dtd'>
<svg id="レイヤー_1" xmlns="http://www.w3.org/2000/svg" xml:space="preserve" height="700px" viewBox="0 0 480 700" width="480px" version="1.1" y="0px" x="0px" xmlns:xlink="http://www.w3.org/1999/xlink" enable-background="new 0 0 480 700">
<g id="japanese_words" font-size="14" font-family="&apos;KozGoPr6N-Regular-83pv-RKSJ-H&apos;">
	<text transform="translate(221.91 586.07)">入口</text>
		<text transform="translate(50 543)" fill="#0000FF">←ＰＣ教室Ａ</text>
</g>
<g id="english_words" font-size="14" font-family="&apos;KozGoPr6N-Regular-83pv-RKSJ-H&apos;" display="none">
		<text transform="translate(221.91 613.07)" display="inline">Entrance</text>
			<text fill="#0000FF" transform="translate(50 570)" display="inline">←Machine Shop A</text>
</g>
<path id="wall" d="m300 573h150v-540h-420v540h150" stroke="#000" stroke-width="3" fill="none"/>
<rect id="pc_1_off" height="21.756" width="25.603" stroke="#64C5E5" stroke-miterlimit="10" y="122.74" x="58.712" fill="#64C5E5"/>
<rect id="pc_2_off" height="21.756" width="25.603" stroke="#64C5E5" stroke-miterlimit="10" y="122.74" x="95.315" fill="#64C5E5"/>
<rect id="pc_3_off" height="21.756" width="25.603" stroke="#64C5E5" stroke-miterlimit="10" y="122.74" x="131.92" fill="#64C5E5"/>
<rect id="pc_4_off" height="21.756" width="25.603" stroke="#64C5E5" stroke-miterlimit="10" y="180.5" x="58.712" fill="#64C5E5"/>
<rect id="pc_5_off" height="21.756" width="25.603" stroke="#64C5E5" stroke-miterlimit="10" y="180.5" x="95.315" fill="#64C5E5"/>
<rect id="pc_6_off" height="21.756" width="25.603" stroke="#64C5E5" stroke-miterlimit="10" y="180.5" x="131.92" fill="#64C5E5"/>
<rect id="pc_7_off" height="21.756" width="25.603" stroke="#64C5E5" stroke-miterlimit="10" y="238.25" x="58.712" fill="#64C5E5"/>
<rect id="pc_8_off" height="21.756" width="25.603" stroke="#64C5E5" stroke-miterlimit="10" y="238.25" x="95.315" fill="#64C5E5"/>
<rect id="pc_9_off" height="21.756" width="25.603" stroke="#64C5E5" stroke-miterlimit="10" y="238.25" x="131.92" fill="#64C5E5"/>
<rect id="pc_10_off" height="21.756" width="25.603" stroke="#64C5E5" stroke-miterlimit="10" y="296.01" x="58.712" fill="#64C5E5"/>
<rect id="pc_11_off" height="21.756" width="25.603" stroke="#64C5E5" stroke-miterlimit="10" y="296.01" x="95.315" fill="#64C5E5"/>
<rect id="pc_12_off" height="21.756" width="25.603" stroke="#64C5E5" stroke-miterlimit="10" y="296.01" x="131.92" fill="#64C5E5"/>
<rect id="pc_13_off" height="21.756" width="25.603" stroke="#64C5E5" stroke-miterlimit="10" y="353.76" x="58.712" fill="#64C5E5"/>
<rect id="pc_14_off" height="21.756" width="25.603" stroke="#64C5E5" stroke-miterlimit="10" y="353.76" x="95.315" fill="#64C5E5"/>
<rect id="pc_15_off" height="21.756" width="25.603" stroke="#64C5E5" stroke-miterlimit="10" y="353.76" x="131.92" fill="#64C5E5"/>
<rect id="pc_16_off" height="21.756" width="25.603" stroke="#64C5E5" stroke-miterlimit="10" y="411.52" x="58.712" fill="#64C5E5"/>
<rect id="pc_17_off" height="21.756" width="25.603" stroke="#64C5E5" stroke-miterlimit="10" y="411.52" x="95.315" fill="#64C5E5"/>
<rect id="pc_18_off" height="21.756" width="25.603" stroke="#64C5E5" stroke-miterlimit="10" y="411.52" x="131.92" fill="#64C5E5"/>
<rect id="pc_19_off" height="21.756" width="25.603" stroke="#64C5E5" stroke-miterlimit="10" y="469.28" x="58.712" fill="#64C5E5"/>
<rect id="pc_20_off" height="21.756" width="25.603" stroke="#64C5E5" stroke-miterlimit="10" y="469.28" x="95.315" fill="#64C5E5"/>
<rect id="pc_21_off" height="21.756" width="25.603" stroke="#64C5E5" stroke-miterlimit="10" y="469.28" x="131.92" fill="#64C5E5"/>
<rect id="pc_22_off" height="21.756" width="25.603" stroke="#64C5E5" stroke-miterlimit="10" y="122.74" x="196.83" fill="#64C5E5"/>
<rect id="pc_23_off" height="21.756" width="25.604" stroke="#64C5E5" stroke-miterlimit="10" y="122.74" x="233.43" fill="#64C5E5"/>
<rect id="pc_24_off" height="21.756" width="25.604" stroke="#64C5E5" stroke-miterlimit="10" y="122.74" x="270.04" fill="#64C5E5"/>
<rect id="pc_25_off" height="21.756" width="25.603" stroke="#64C5E5" stroke-miterlimit="10" y="180.5" x="196.83" fill="#64C5E5"/>
<rect id="pc_26_off" height="21.756" width="25.604" stroke="#64C5E5" stroke-miterlimit="10" y="180.5" x="233.43" fill="#64C5E5"/>
<rect id="pc_27_off" height="21.756" width="25.604" stroke="#64C5E5" stroke-miterlimit="10" y="180.5" x="270.04" fill="#64C5E5"/>
<rect id="pc_28_off" height="21.756" width="25.603" stroke="#64C5E5" stroke-miterlimit="10" y="238.25" x="196.83" fill="#64C5E5"/>
<rect id="pc_29_off" height="21.756" width="25.604" stroke="#64C5E5" stroke-miterlimit="10" y="238.25" x="233.43" fill="#64C5E5"/>
<rect id="pc_30_off" height="21.756" width="25.604" stroke="#64C5E5" stroke-miterlimit="10" y="238.25" x="270.04" fill="#64C5E5"/>
<rect id="pc_31_off" height="21.756" width="25.604" stroke="#64C5E5" stroke-miterlimit="10" y="296.01" x="196.83" fill="#64C5E5"/>
<rect id="pc_32_off" height="21.756" width="25.604" stroke="#64C5E5" stroke-miterlimit="10" y="296.01" x="233.43" fill="#64C5E5"/>
<rect id="pc_33_off" height="21.756" width="25.604" stroke="#64C5E5" stroke-miterlimit="10" y="296.01" x="270.04" fill="#64C5E5"/>
<rect id="pc_34_off" height="21.756" width="25.603" stroke="#64C5E5" stroke-miterlimit="10" y="353.76" x="196.83" fill="#64C5E5"/>
<rect id="pc_35_off" height="21.756" width="25.604" stroke="#64C5E5" stroke-miterlimit="10" y="353.76" x="233.43" fill="#64C5E5"/>
<rect id="pc_36_off" height="21.756" width="25.604" stroke="#64C5E5" stroke-miterlimit="10" y="353.76" x="270.04" fill="#64C5E5"/>
<rect id="pc_37_off" height="21.756" width="25.603" stroke="#64C5E5" stroke-miterlimit="10" y="411.52" x="196.83" fill="#64C5E5"/>
<rect id="pc_38_off" height="21.756" width="25.604" stroke="#64C5E5" stroke-miterlimit="10" y="411.52" x="233.43" fill="#64C5E5"/>
<rect id="pc_39_off" height="21.756" width="25.604" stroke="#64C5E5" stroke-miterlimit="10" y="411.52" x="270.04" fill="#64C5E5"/>
<rect id="pc_40_off" height="21.756" width="25.604" stroke="#64C5E5" stroke-miterlimit="10" y="122.74" x="327.83" fill="#64C5E5"/>
<rect id="pc_41_off" height="21.756" width="25.604" stroke="#64C5E5" stroke-miterlimit="10" y="122.74" x="364.43" fill="#64C5E5"/>
<rect id="pc_42_off" height="21.756" width="25.604" stroke="#64C5E5" stroke-miterlimit="10" y="122.74" x="401.04" fill="#64C5E5"/>
<rect id="pc_43_off" height="21.756" width="25.604" stroke="#64C5E5" stroke-miterlimit="10" y="180.5" x="327.83" fill="#64C5E5"/>
<rect id="pc_44_off" height="21.756" width="25.604" stroke="#64C5E5" stroke-miterlimit="10" y="180.5" x="364.43" fill="#64C5E5"/>
<rect id="pc_45_off" height="21.756" width="25.604" stroke="#64C5E5" stroke-miterlimit="10" y="180.5" x="401.04" fill="#64C5E5"/>
<rect id="pc_46_off" height="21.756" width="25.604" stroke="#64C5E5" stroke-miterlimit="10" y="238.25" x="327.83" fill="#64C5E5"/>
<rect id="pc_47_off" height="21.756" width="25.604" stroke="#64C5E5" stroke-miterlimit="10" y="238.25" x="364.43" fill="#64C5E5"/>
<rect id="pc_48_off" height="21.756" width="25.604" stroke="#64C5E5" stroke-miterlimit="10" y="238.25" x="401.04" fill="#64C5E5"/>
<rect id="pc_49_off" height="21.756" width="25.604" stroke="#64C5E5" stroke-miterlimit="10" y="296.01" x="327.83" fill="#64C5E5"/>
<rect id="pc_50_off" height="21.756" width="25.604" stroke="#64C5E5" stroke-miterlimit="10" y="296.01" x="401.04" fill="#64C5E5"/>
<rect id="pc_51_off" height="21.756" width="25.604" stroke="#64C5E5" stroke-miterlimit="10" y="353.76" x="327.83" fill="#64C5E5"/>
<rect id="pc_52_off" height="21.756" width="25.604" stroke="#64C5E5" stroke-miterlimit="10" y="354.89" x="401.04" fill="#64C5E5"/>
<rect id="pc_53_off" height="21.756" width="25.604" stroke="#64C5E5" stroke-miterlimit="10" y="82.92" x="233.43" fill="#64C5E5"/>
</svg>
