<?xml version="1.0" encoding="utf-8"?>
<!-- Generator: Adobe Illustrator 16.2.1, SVG Export Plug-In . SVG Version: 6.00 Build 0)  -->
<!DOCTYPE svg PUBLIC "-//W3C//DTD SVG 1.1//EN" "http://www.w3.org/Graphics/SVG/1.1/DTD/svg11.dtd">
<svg version="1.1" id="レイヤー_1" xmlns="http://www.w3.org/2000/svg" xmlns:xlink="http://www.w3.org/1999/xlink" x="0px"
	 y="0px" width="480px" height="750px" viewBox="0 0 480 750" enable-background="new 0 0 480 750" xml:space="preserve">
<text transform="matrix(1 0 0 1 410.5996 595)" font-family="'KozGoPr6N-Regular-83pv-RKSJ-H'" font-size="14">入口</text>
<text transform="matrix(1 0 0 1 408.9102 172.5498)" font-family="'KozGoPr6N-Regular-83pv-RKSJ-H'" font-size="14">入口</text>
<g id="english_words" display="none">
	<text transform="matrix(1 0 0 1 405.5996 595)" display="inline" font-family="'KozGoPr6N-Regular-83pv-RKSJ-H'" font-size="14">Entrance</text>
	
		<text transform="matrix(1 0 0 1 403.9102 172.5498)" display="inline" font-family="'KozGoPr6N-Regular-83pv-RKSJ-H'" font-size="14">Entrance</text>
</g>
<rect id="pc_c1_off" x="69.993" y="339.24" fill="#64C5E5" stroke="#64C5E5" stroke-miterlimit="10" width="24.553" height="22.633"/>
<rect id="pc_c2_off" x="69.993" y="311.61" fill="#64C5E5" stroke="#64C5E5" stroke-miterlimit="10" width="24.553" height="22.633"/>
<rect id="pc_c3_off" x="69.993" y="283.98" fill="#64C5E5" stroke="#64C5E5" stroke-miterlimit="10" width="24.553" height="22.633"/>
<rect id="pc_c4_off" x="125.8" y="339.24" fill="#64C5E5" stroke="#64C5E5" stroke-miterlimit="10" width="24.553" height="22.633"/>
<rect id="pc_c5_off" x="125.8" y="311.61" fill="#64C5E5" stroke="#64C5E5" stroke-miterlimit="10" width="24.553" height="22.633"/>
<rect id="pc_c6_off" x="125.8" y="283.98" fill="#64C5E5" stroke="#64C5E5" stroke-miterlimit="10" width="24.553" height="22.633"/>
<rect id="pc_c7_off" x="181.61" y="339.24" fill="#64C5E5" stroke="#64C5E5" stroke-miterlimit="10" width="24.553" height="22.633"/>
<rect id="pc_c8_off" x="181.61" y="311.61" fill="#64C5E5" stroke="#64C5E5" stroke-miterlimit="10" width="24.553" height="22.633"/>
<rect id="pc_c9_off" x="181.61" y="283.98" fill="#64C5E5" stroke="#64C5E5" stroke-miterlimit="10" width="24.553" height="22.633"/>
<rect id="pc_c10_off" x="237.42" y="339.24" fill="#64C5E5" stroke="#64C5E5" stroke-miterlimit="10" width="24.553" height="22.633"/>
<rect id="pc_c11_off" x="237.42" y="311.61" fill="#64C5E5" stroke="#64C5E5" stroke-miterlimit="10" width="24.553" height="22.633"/>
<rect id="pc_c12_off" x="237.42" y="283.98" fill="#64C5E5" stroke="#64C5E5" stroke-miterlimit="10" width="24.553" height="22.633"/>
<rect id="pc_c13_off" x="293.24" y="339.24" fill="#64C5E5" stroke="#64C5E5" stroke-miterlimit="10" width="24.553" height="22.633"/>
<rect id="pc_c14_off" x="293.24" y="311.61" fill="#64C5E5" stroke="#64C5E5" stroke-miterlimit="10" width="24.553" height="22.633"/>
<rect id="pc_c15_off" x="293.24" y="283.98" fill="#64C5E5" stroke="#64C5E5" stroke-miterlimit="10" width="24.553" height="22.633"/>
<rect id="pc_c16_off" x="349.05" y="339.24" fill="#64C5E5" stroke="#64C5E5" stroke-miterlimit="10" width="24.554" height="22.633"/>
<rect id="pc_c17_off" x="349.05" y="311.61" fill="#64C5E5" stroke="#64C5E5" stroke-miterlimit="10" width="24.554" height="22.633"/>
<rect id="pc_c18_off" x="349.05" y="283.98" fill="#64C5E5" stroke="#64C5E5" stroke-miterlimit="10" width="24.554" height="22.633"/>
<rect id="pc_c19_off" x="69.993" y="228.76" fill="#64C5E5" stroke="#64C5E5" stroke-miterlimit="10" width="24.553" height="22.633"/>
<rect id="pc_c20_off" x="69.993" y="201.13" fill="#64C5E5" stroke="#64C5E5" stroke-miterlimit="10" width="24.553" height="22.633"/>
<rect id="pc_c21_off" x="69.993" y="173.5" fill="#64C5E5" stroke="#64C5E5" stroke-miterlimit="10" width="24.553" height="22.633"/>
<rect id="pc_c22_off" x="125.8" y="228.76" fill="#64C5E5" stroke="#64C5E5" stroke-miterlimit="10" width="24.553" height="22.633"/>
<rect id="pc_c23_off" x="125.8" y="201.13" fill="#64C5E5" stroke="#64C5E5" stroke-miterlimit="10" width="24.553" height="22.633"/>
<rect id="pc_c24_off" x="125.8" y="173.5" fill="#64C5E5" stroke="#64C5E5" stroke-miterlimit="10" width="24.553" height="22.633"/>
<rect id="pc_c25_off" x="237.42" y="228.76" fill="#64C5E5" stroke="#64C5E5" stroke-miterlimit="10" width="24.553" height="22.633"/>
<rect id="pc_c26_off" x="237.42" y="201.13" fill="#64C5E5" stroke="#64C5E5" stroke-miterlimit="10" width="24.553" height="22.633"/>
<rect id="pc_c27_off" x="237.42" y="173.5" fill="#64C5E5" stroke="#64C5E5" stroke-miterlimit="10" width="24.553" height="22.633"/>
<rect id="pc_c28_off" x="293.24" y="228.76" fill="#64C5E5" stroke="#64C5E5" stroke-miterlimit="10" width="24.553" height="22.633"/>
<rect id="pc_c29_off" x="293.24" y="201.13" fill="#64C5E5" stroke="#64C5E5" stroke-miterlimit="10" width="24.553" height="22.633"/>
<rect id="pc_c30_off" x="293.24" y="173.5" fill="#64C5E5" stroke="#64C5E5" stroke-miterlimit="10" width="24.553" height="22.633"/>
<rect id="pc_c31_off" x="349.05" y="228.76" fill="#64C5E5" stroke="#64C5E5" stroke-miterlimit="10" width="24.554" height="22.633"/>
<rect id="pc_c32_off" x="349.05" y="201.13" fill="#64C5E5" stroke="#64C5E5" stroke-miterlimit="10" width="24.554" height="22.633"/>
<rect id="pc_c33_off" x="349.05" y="173.5" fill="#64C5E5" stroke="#64C5E5" stroke-miterlimit="10" width="24.554" height="22.633"/>
<rect id="pc_c34_off" x="69.993" y="124.43" fill="#64C5E5" stroke="#64C5E5" stroke-miterlimit="10" width="24.553" height="22.633"/>
<rect id="pc_c35_off" x="69.993" y="96.799" fill="#64C5E5" stroke="#64C5E5" stroke-miterlimit="10" width="24.553" height="22.633"/>
<rect id="pc_c36_off" x="69.993" y="69.166" fill="#64C5E5" stroke="#64C5E5" stroke-miterlimit="10" width="24.553" height="22.633"/>
<rect id="pc_c37_off" x="125.8" y="124.43" fill="#64C5E5" stroke="#64C5E5" stroke-miterlimit="10" width="24.553" height="22.633"/>
<rect id="pc_c38_off" x="125.8" y="96.799" fill="#64C5E5" stroke="#64C5E5" stroke-miterlimit="10" width="24.553" height="22.633"/>
<rect id="pc_c39_off" x="125.8" y="69.166" fill="#64C5E5" stroke="#64C5E5" stroke-miterlimit="10" width="24.553" height="22.633"/>
<rect id="pc_c40_off" x="181.61" y="124.43" fill="#64C5E5" stroke="#64C5E5" stroke-miterlimit="10" width="24.553" height="22.633"/>
<rect id="pc_c41_off" x="181.61" y="96.799" fill="#64C5E5" stroke="#64C5E5" stroke-miterlimit="10" width="24.553" height="22.633"/>
<rect id="pc_c42_off" x="181.61" y="69.166" fill="#64C5E5" stroke="#64C5E5" stroke-miterlimit="10" width="24.553" height="22.633"/>
<rect id="pc_c43_off" x="237.42" y="124.43" fill="#64C5E5" stroke="#64C5E5" stroke-miterlimit="10" width="24.553" height="22.633"/>
<rect id="pc_c44_off" x="237.42" y="96.799" fill="#64C5E5" stroke="#64C5E5" stroke-miterlimit="10" width="24.553" height="22.633"/>
<rect id="pc_c45_off" x="237.42" y="69.166" fill="#64C5E5" stroke="#64C5E5" stroke-miterlimit="10" width="24.553" height="22.633"/>
<rect id="pc_c46_off" x="293.24" y="124.43" fill="#64C5E5" stroke="#64C5E5" stroke-miterlimit="10" width="24.553" height="22.633"/>
<rect id="pc_c47_off" x="293.24" y="96.799" fill="#64C5E5" stroke="#64C5E5" stroke-miterlimit="10" width="24.553" height="22.633"/>
<rect id="pc_c48_off" x="293.24" y="69.166" fill="#64C5E5" stroke="#64C5E5" stroke-miterlimit="10" width="24.553" height="22.633"/>
<rect id="pc_c49_off" x="349.05" y="110.62" fill="#64C5E5" stroke="#64C5E5" stroke-miterlimit="10" width="24.554" height="22.633"/>
<rect id="pc_c50_off" x="349.05" y="82.982" fill="#64C5E5" stroke="#64C5E5" stroke-miterlimit="10" width="24.554" height="22.633"/>
<rect id="pc_c51_off" x="404.86" y="110.62" fill="#64C5E5" stroke="#64C5E5" stroke-miterlimit="10" width="24.554" height="22.633"/>
<rect id="pc_c52_off" x="404.86" y="82.982" fill="#64C5E5" stroke="#64C5E5" stroke-miterlimit="10" width="24.554" height="22.633"/>
<rect id="pc_c53_off" x="39" y="201.13" fill="#64C5E5" stroke="#64C5E5" stroke-miterlimit="10" width="24.553" height="22.633"/>
<rect id="pc_d1_off" x="69.993" y="660.05" fill="#64C5E5" stroke="#64C5E5" stroke-miterlimit="10" width="24.553" height="22.633"/>
<rect id="pc_d2_off" x="69.993" y="632.42" fill="#64C5E5" stroke="#64C5E5" stroke-miterlimit="10" width="24.553" height="22.633"/>
<rect id="pc_d3_off" x="69.993" y="604.78" fill="#64C5E5" stroke="#64C5E5" stroke-miterlimit="10" width="24.553" height="22.633"/>
<rect id="pc_d4_off" x="125.8" y="660.05" fill="#64C5E5" stroke="#64C5E5" stroke-miterlimit="10" width="24.553" height="22.633"/>
<rect id="pc_d5_off" x="125.8" y="632.42" fill="#64C5E5" stroke="#64C5E5" stroke-miterlimit="10" width="24.553" height="22.633"/>
<rect id="pc_d6_off" x="125.8" y="604.78" fill="#64C5E5" stroke="#64C5E5" stroke-miterlimit="10" width="24.553" height="22.633"/>
<rect id="pc_d7_off" x="181.61" y="660.05" fill="#64C5E5" stroke="#64C5E5" stroke-miterlimit="10" width="24.553" height="22.633"/>
<rect id="pc_d8_off" x="181.61" y="632.42" fill="#64C5E5" stroke="#64C5E5" stroke-miterlimit="10" width="24.553" height="22.633"/>
<rect id="pc_d9_off" x="181.61" y="604.78" fill="#64C5E5" stroke="#64C5E5" stroke-miterlimit="10" width="24.553" height="22.633"/>
<rect id="pc_d10_off" x="237.42" y="660.05" fill="#64C5E5" stroke="#64C5E5" stroke-miterlimit="10" width="24.553" height="22.633"/>
<rect id="pc_d11_off" x="237.42" y="632.42" fill="#64C5E5" stroke="#64C5E5" stroke-miterlimit="10" width="24.553" height="22.633"/>
<rect id="pc_d12_off" x="237.42" y="604.78" fill="#64C5E5" stroke="#64C5E5" stroke-miterlimit="10" width="24.553" height="22.633"/>
<rect id="pc_d13_off" x="293.24" y="660.05" fill="#64C5E5" stroke="#64C5E5" stroke-miterlimit="10" width="24.553" height="22.633"/>
<rect id="pc_d14_off" x="293.24" y="632.42" fill="#64C5E5" stroke="#64C5E5" stroke-miterlimit="10" width="24.553" height="22.633"/>
<rect id="pc_d15_off" x="293.24" y="604.78" fill="#64C5E5" stroke="#64C5E5" stroke-miterlimit="10" width="24.553" height="22.633"/>
<rect id="pc_d16_off" x="69.993" y="551.07" fill="#64C5E5" stroke="#64C5E5" stroke-miterlimit="10" width="24.553" height="22.633"/>
<rect id="pc_d17_off" x="69.993" y="523.44" fill="#64C5E5" stroke="#64C5E5" stroke-miterlimit="10" width="24.553" height="22.633"/>
<rect id="pc_d18_off" x="69.993" y="495.81" fill="#64C5E5" stroke="#64C5E5" stroke-miterlimit="10" width="24.553" height="22.633"/>
<rect id="pc_d19_off" x="125.8" y="551.07" fill="#64C5E5" stroke="#64C5E5" stroke-miterlimit="10" width="24.553" height="22.633"/>
<rect id="pc_d20_off" x="125.8" y="523.44" fill="#64C5E5" stroke="#64C5E5" stroke-miterlimit="10" width="24.553" height="22.633"/>
<rect id="pc_d21_off" x="125.8" y="495.81" fill="#64C5E5" stroke="#64C5E5" stroke-miterlimit="10" width="24.553" height="22.633"/>
<rect id="pc_d22_off" x="237.42" y="551.07" fill="#64C5E5" stroke="#64C5E5" stroke-miterlimit="10" width="24.553" height="22.633"/>
<rect id="pc_d23_off" x="237.42" y="523.44" fill="#64C5E5" stroke="#64C5E5" stroke-miterlimit="10" width="24.553" height="22.633"/>
<rect id="pc_d24_off" x="237.42" y="495.81" fill="#64C5E5" stroke="#64C5E5" stroke-miterlimit="10" width="24.553" height="22.633"/>
<rect id="pc_d25_off" x="293.24" y="551.07" fill="#64C5E5" stroke="#64C5E5" stroke-miterlimit="10" width="24.553" height="22.633"/>
<rect id="pc_d26_off" x="293.24" y="523.44" fill="#64C5E5" stroke="#64C5E5" stroke-miterlimit="10" width="24.553" height="22.633"/>
<rect id="pc_d27_off" x="293.24" y="495.81" fill="#64C5E5" stroke="#64C5E5" stroke-miterlimit="10" width="24.553" height="22.633"/>
<rect id="pc_d28_off" x="349.05" y="551.07" fill="#64C5E5" stroke="#64C5E5" stroke-miterlimit="10" width="24.554" height="22.633"/>
<rect id="pc_d29_off" x="349.05" y="523.44" fill="#64C5E5" stroke="#64C5E5" stroke-miterlimit="10" width="24.554" height="22.633"/>
<rect id="pc_d30_off" x="349.05" y="495.81" fill="#64C5E5" stroke="#64C5E5" stroke-miterlimit="10" width="24.554" height="22.633"/>
<rect id="pc_d31_off" x="404.86" y="551.07" fill="#64C5E5" stroke="#64C5E5" stroke-miterlimit="10" width="24.554" height="22.633"/>
<rect id="pc_d32_off" x="404.86" y="523.44" fill="#64C5E5" stroke="#64C5E5" stroke-miterlimit="10" width="24.554" height="22.633"/>
<rect id="pc_d33_off" x="404.86" y="495.81" fill="#64C5E5" stroke="#64C5E5" stroke-miterlimit="10" width="24.554" height="22.633"/>
<rect id="pc_d34_off" x="69.993" y="450.89" fill="#64C5E5" stroke="#64C5E5" stroke-miterlimit="10" width="24.553" height="22.633"/>
<rect id="pc_d35_off" x="69.993" y="423.25" fill="#64C5E5" stroke="#64C5E5" stroke-miterlimit="10" width="24.553" height="22.633"/>
<rect id="pc_d36_off" x="69.993" y="395.62" fill="#64C5E5" stroke="#64C5E5" stroke-miterlimit="10" width="24.553" height="22.633"/>
<rect id="pc_d37_off" x="125.8" y="450.89" fill="#64C5E5" stroke="#64C5E5" stroke-miterlimit="10" width="24.553" height="22.633"/>
<rect id="pc_d38_off" x="125.8" y="423.25" fill="#64C5E5" stroke="#64C5E5" stroke-miterlimit="10" width="24.553" height="22.633"/>
<rect id="pc_d39_off" x="125.8" y="395.62" fill="#64C5E5" stroke="#64C5E5" stroke-miterlimit="10" width="24.553" height="22.633"/>
<rect id="pc_d40_off" x="181.61" y="450.89" fill="#64C5E5" stroke="#64C5E5" stroke-miterlimit="10" width="24.553" height="22.633"/>
<rect id="pc_d41_off" x="181.61" y="423.25" fill="#64C5E5" stroke="#64C5E5" stroke-miterlimit="10" width="24.553" height="22.633"/>
<rect id="pc_d42_off" x="181.61" y="395.62" fill="#64C5E5" stroke="#64C5E5" stroke-miterlimit="10" width="24.553" height="22.633"/>
<rect id="pc_d43_off" x="237.42" y="450.89" fill="#64C5E5" stroke="#64C5E5" stroke-miterlimit="10" width="24.553" height="22.633"/>
<rect id="pc_d44_off" x="237.42" y="423.25" fill="#64C5E5" stroke="#64C5E5" stroke-miterlimit="10" width="24.553" height="22.633"/>
<rect id="pc_d45_off" x="237.42" y="395.62" fill="#64C5E5" stroke="#64C5E5" stroke-miterlimit="10" width="24.553" height="22.633"/>
<rect id="pc_d46_off" x="293.24" y="450.89" fill="#64C5E5" stroke="#64C5E5" stroke-miterlimit="10" width="24.553" height="22.633"/>
<rect id="pc_d47_off" x="293.24" y="423.25" fill="#64C5E5" stroke="#64C5E5" stroke-miterlimit="10" width="24.553" height="22.633"/>
<rect id="pc_d48_off" x="293.24" y="395.62" fill="#64C5E5" stroke="#64C5E5" stroke-miterlimit="10" width="24.553" height="22.633"/>
<rect id="pc_d49_off" x="349.05" y="437.07" fill="#64C5E5" stroke="#64C5E5" stroke-miterlimit="10" width="24.554" height="22.633"/>
<rect id="pc_d50_off" x="349.05" y="409.439" fill="#64C5E5" stroke="#64C5E5" stroke-miterlimit="10" width="24.554" height="22.633"/>
<rect id="pc_d51_off" x="404.86" y="437.07" fill="#64C5E5" stroke="#64C5E5" stroke-miterlimit="10" width="24.554" height="22.633"/>
<rect id="pc_d52_off" x="404.86" y="409.439" fill="#64C5E5" stroke="#64C5E5" stroke-miterlimit="10" width="24.554" height="22.633"/>
<rect id="pc_d53_off" x="39" y="523.44" fill="#64C5E5" stroke="#64C5E5"  stroke-miterlimit="10" width="24.553" height="22.633"/>
<line fill="none" stroke="#000000" stroke-width="3" stroke-miterlimit="10" x1="30.46" y1="47.667" x2="30.46" y2="705.21"/>
<line fill="none" stroke="#000000" stroke-width="3" stroke-miterlimit="10" x1="30.46" y1="703.692" x2="449.54" y2="703.692"/>
<line fill="none" stroke="#000000" stroke-width="3" stroke-miterlimit="10" x1="449.54" y1="705.21" x2="449.54" y2="604.78"/>
<line fill="none" stroke="#000000" stroke-width="3" stroke-miterlimit="10" x1="449.54" y1="563.387" x2="449.54" y2="187.503"/>
<line fill="none" stroke="#000000" stroke-width="3" stroke-miterlimit="10" x1="449.54" y1="151.14" x2="449.54" y2="47.629"/>
<line fill="none" stroke="#000000" stroke-width="3" stroke-miterlimit="10" x1="30.46" y1="49.132" x2="449.54" y2="49.132"/>
</svg>
