<?xml version="1.0" encoding="utf-8"?>
<!-- Generator: Adobe Illustrator 16.2.1, SVG Export Plug-In . SVG Version: 6.00 Build 0)  -->
<!DOCTYPE svg PUBLIC "-//W3C//DTD SVG 1.1//EN" "http://www.w3.org/Graphics/SVG/1.1/DTD/svg11.dtd">
<svg version="1.1" id="レイヤー_1" xmlns="http://www.w3.org/2000/svg" xmlns:xlink="http://www.w3.org/1999/xlink" x="0px"
	 y="0px" width="480px" height="650px" viewBox="0 0 480 650" enable-background="new 0 0 480 650" xml:space="preserve">
<rect id="pc_1_on" x="102.95" y="141.5" fill="#64C5E5" stroke="#64C5E5" stroke-miterlimit="10" width="28.05" height="23.111"/>
<rect id="pc_2_on" x="144" y="141.5" fill="#64C5E5" stroke="#64C5E5" stroke-miterlimit="10" width="28.05" height="23.111"/>
<rect id="pc_3_on" x="185.05" y="141.5" fill="#64C5E5" stroke="#64C5E5" stroke-miterlimit="10" width="28.05" height="23.111"/>
<rect id="pc_4_on" x="102.95" y="200.61" fill="#64C5E5" stroke="#64C5E5" stroke-miterlimit="10" width="28.05" height="23.111"/>
<rect id="pc_5_on" x="144" y="200.61" fill="#64C5E5" stroke="#64C5E5" stroke-miterlimit="10" width="28.05" height="23.111"/>
<rect id="pc_6_on" x="185.05" y="200.61" fill="#64C5E5" stroke="#64C5E5" stroke-miterlimit="10" width="28.05" height="23.111"/>
<rect id="pc_7_on" x="102.95" y="259.72" fill="#64C5E5" stroke="#64C5E5" stroke-miterlimit="10" width="28.05" height="23.112"/>
<rect id="pc_8_on" x="144" y="259.72" fill="#64C5E5" stroke="#64C5E5" stroke-miterlimit="10" width="28.05" height="23.111"/>
<rect id="pc_9_on" x="185.05" y="259.72" fill="#64C5E5" stroke="#64C5E5" stroke-miterlimit="10" width="28.05" height="23.111"/>
<rect id="pc_10_on" x="102.95" y="318.83" fill="#64C5E5" stroke="#64C5E5" stroke-miterlimit="10" width="28.05" height="23.111"/>
<rect id="pc_11_on" x="144" y="318.83" fill="#64C5E5" stroke="#64C5E5" stroke-miterlimit="10" width="28.05" height="23.111"/>
<rect id="pc_12_on" x="185.05" y="318.83" fill="#64C5E5" stroke="#64C5E5" stroke-miterlimit="10" width="28.05" height="23.111"/>
<rect id="pc_13_on" x="102.95" y="377.939" fill="#64C5E5" stroke="#64C5E5" stroke-miterlimit="10" width="28.05" height="23.111"/>
<rect id="pc_14_on" x="144" y="377.939" fill="#64C5E5" stroke="#64C5E5" stroke-miterlimit="10" width="28.05" height="23.111"/>
<rect id="pc_15_on" x="185.05" y="377.939" fill="#64C5E5" stroke="#64C5E5" stroke-miterlimit="10" width="28.05" height="23.111"/>
<rect id="pc_16_on" x="102.95" y="437.05" fill="#64C5E5" stroke="#64C5E5" stroke-miterlimit="10" width="28.05" height="23.111"/>
<rect id="pc_17_on" x="144" y="437.05" fill="#64C5E5" stroke="#64C5E5" stroke-miterlimit="10" width="28.05" height="23.111"/>
<rect id="pc_18_on" x="185.05" y="437.05" fill="#64C5E5" stroke="#64C5E5" stroke-miterlimit="10" width="28.05" height="23.111"/>
<rect id="pc_19_on" x="271.01" y="143.73" fill="#64C5E5" stroke="#64C5E5" stroke-miterlimit="10" width="28.05" height="23.111"/>
<rect id="pc_20_on" x="312.06" y="143.73" fill="#64C5E5" stroke="#64C5E5" stroke-miterlimit="10" width="28.051" height="23.111"/>
<rect id="pc_21_on" x="353.11" y="143.73" fill="#64C5E5" stroke="#64C5E5" stroke-miterlimit="10" width="28.05" height="23.111"/>
<rect id="pc_22_on" x="271.01" y="202.84" fill="#64C5E5" stroke="#64C5E5" stroke-miterlimit="10" width="28.05" height="23.111"/>
<rect id="pc_23_on" x="312.06" y="202.84" fill="#64C5E5" stroke="#64C5E5" stroke-miterlimit="10" width="28.051" height="23.111"/>
<rect id="pc_24_on" x="353.11" y="202.84" fill="#64C5E5" stroke="#64C5E5" stroke-miterlimit="10" width="28.05" height="23.111"/>
<rect id="pc_25_on" x="271.01" y="261.95" fill="#64C5E5" stroke="#64C5E5" stroke-miterlimit="10" width="28.05" height="23.112"/>
<rect id="pc_26_on" x="312.06" y="261.95" fill="#64C5E5" stroke="#64C5E5" stroke-miterlimit="10" width="28.051" height="23.112"/>
<rect id="pc_27_on" x="353.11" y="261.95" fill="#64C5E5" stroke="#64C5E5" stroke-miterlimit="10" width="28.05" height="23.112"/>
<rect id="pc_28_on" x="271.01" y="377.939" fill="#64C5E5" stroke="#64C5E5" stroke-miterlimit="10" width="28.05" height="23.111"/>
<rect id="pc_29_on" x="312.06" y="377.939" fill="#64C5E5" stroke="#64C5E5" stroke-miterlimit="10" width="28.051" height="23.111"/>
<rect id="pc_30_on" x="353.11" y="377.939" fill="#64C5E5" stroke="#64C5E5" stroke-miterlimit="10" width="28.05" height="23.111"/>
<rect id="pc_31_on" x="271.01" y="437.05" fill="#64C5E5" stroke="#64C5E5" stroke-miterlimit="10" width="28.05" height="23.111"/>
<rect id="pc_32_on" x="312.06" y="437.05" fill="#64C5E5" stroke="#64C5E5" stroke-miterlimit="10" width="28.051" height="23.111"/>
<rect id="pc_33_on" x="353.11" y="437.05" fill="#64C5E5" stroke="#64C5E5" stroke-miterlimit="10" width="28.05" height="23.111"/>
<rect id="pc_34_on" x="312.06" y="96.35" fill="#64C5E5" stroke="#64C5E5" stroke-miterlimit="10" width="28.051" height="23.111"/>
<line fill="none" stroke="#000000" stroke-width="3" stroke-miterlimit="10" x1="62.429" y1="57.208" x2="62.429" y2="549.793"/>
<line fill="none" stroke="#000000" stroke-width="3" stroke-miterlimit="10" x1="62.429" y1="548.29" x2="428.659" y2="548.29"/>
<line fill="none" stroke="#000000" stroke-width="3" stroke-miterlimit="10" x1="429" y1="549.781" x2="429" y2="384.5"/>
<line fill="none" stroke="#000000" stroke-width="3" stroke-miterlimit="10" x1="428.659" y1="341.941" x2="428.659" y2="57.208"/>
<line fill="none" stroke="#000000" stroke-width="3" stroke-miterlimit="10" x1="428.659" y1="58.68" x2="62.429" y2="58.68"/>
</svg>
