<?xml version="1.0" encoding="UTF-8" standalone="no"?>
<!-- Generator: Adobe Illustrator 16.2.1, SVG Export Plug-In . SVG Version: 6.00 Build 0)  -->
<!DOCTYPE svg  PUBLIC '-//W3C//DTD SVG 1.1//EN'  'http://www.w3.org/Graphics/SVG/1.1/DTD/svg11.dtd'>
<svg id="レイヤー_1" xmlns="http://www.w3.org/2000/svg" xml:space="preserve" height="650px" viewBox="0 0 480 650" width="480px" version="1.1" y="0px" x="0px" xmlns:xlink="http://www.w3.org/1999/xlink" enable-background="new 0 0 480 650">
<g id="japanese_words">
		<text font-size="14" font-family="&apos;KozGoPr6N-Regular-83pv-RKSJ-H&apos;" transform="translate(320 530)" fill="#0000FF">↓2F ＰＣプラザ</text>
</g>
<g id="english_words" display="none">
			<text font-size="14" fill="#0000FF" transform="translate(320 567)" font-family="&apos;KozGoPr6N-Regular-83pv-RKSJ-H&apos;" display="inline">↓2F PC Plaza</text>
</g>
<path id="wall" d="m400 543h40v-500h-400v500h280" stroke="#000" stroke-width="3" fill="none"/>
<rect id="pc_1_off" height="21.79" width="38.223" stroke="#64C5E5" stroke-miterlimit="10" y="159.62" x="79.11" fill="#64C5E5"/>
<rect id="pc_2_off" height="21.79" width="38.223" stroke="#64C5E5" stroke-miterlimit="10" y="159.62" x="123.33" fill="#64C5E5"/>
<rect id="pc_7_off" height="21.79" width="38.223" stroke="#64C5E5" stroke-miterlimit="10" y="159.62" x="199.11" fill="#64C5E5"/>
<rect id="pc_8_off" height="21.79" width="38.223" stroke="#64C5E5" stroke-miterlimit="10" y="159.62" x="243.33" fill="#64C5E5"/>
<rect id="pc_15_off" height="21.79" width="38.223" stroke="#64C5E5" stroke-miterlimit="10" y="159.62" x="318.34" fill="#64C5E5"/>
<rect id="pc_16_off" height="21.79" width="38.223" stroke="#64C5E5" stroke-miterlimit="10" y="159.62" x="362.56" fill="#64C5E5"/>
<rect id="pc_3_off" height="21.79" width="38.223" stroke="#64C5E5" stroke-miterlimit="10" y="222.41" x="79.11" fill="#64C5E5"/>
<rect id="pc_4_off" height="21.79" width="38.223" stroke="#64C5E5" stroke-miterlimit="10" y="222.41" x="123.33" fill="#64C5E5"/>
<rect id="pc_9_off" height="21.79" width="38.223" stroke="#64C5E5" stroke-miterlimit="10" y="222.41" x="199.11" fill="#64C5E5"/>
<rect id="pc_10_off" height="21.79" width="38.223" stroke="#64C5E5" stroke-miterlimit="10" y="222.8" x="243.33" fill="#64C5E5"/>
<rect id="pc_17_off" height="21.79" width="38.223" stroke="#64C5E5" stroke-miterlimit="10" y="222.41" x="318.75" fill="#64C5E5"/>
<rect id="pc_18_off" height="21.79" width="38.223" stroke="#64C5E5" stroke-miterlimit="10" y="222.41" x="362.97" fill="#64C5E5"/>
<rect id="pc_5_off" height="21.79" width="38.223" stroke="#64C5E5" stroke-miterlimit="10" y="285.2" x="123.33" fill="#64C5E5"/>
<rect id="pc_11_off" height="21.791" width="38.223" stroke="#64C5E5" stroke-miterlimit="10" y="285.59" x="199.11" fill="#64C5E5"/>
<rect id="pc_12_off" height="21.789" width="38.223" stroke="#64C5E5" stroke-miterlimit="10" y="285.98" x="243.33" fill="#64C5E5"/>
<rect id="pc_19_off" height="21.79" width="38.223" stroke="#64C5E5" stroke-miterlimit="10" y="285.2" x="318.53" fill="#64C5E5"/>
<rect id="pc_20_off" height="21.79" width="38.223" stroke="#64C5E5" stroke-miterlimit="10" y="285.2" x="362.75" fill="#64C5E5"/>
<rect id="pc_6_off" height="21.79" width="38.223" stroke="#64C5E5" stroke-miterlimit="10" y="347.99" x="123.33" fill="#64C5E5"/>
<rect id="pc_13_off" height="21.791" width="38.223" stroke="#64C5E5" stroke-miterlimit="10" y="348.77" x="199.11" fill="#64C5E5"/>
<rect id="pc_14_off" height="21.789" width="38.223" stroke="#64C5E5" stroke-miterlimit="10" y="349.16" x="243.33" fill="#64C5E5"/>
<rect id="pc_21_off" height="21.79" width="38.223" stroke="#64C5E5" stroke-miterlimit="10" y="347.99" x="318.95" fill="#64C5E5"/>
<rect id="pc_22_off" height="21.79" width="38.223" stroke="#64C5E5" stroke-miterlimit="10" y="347.99" x="363.17" fill="#64C5E5"/>
<rect id="pc_23_off" height="21.79" width="38.223" stroke="#64C5E5" stroke-miterlimit="10" y="96.828" x="221.22" fill="#64C5E5"/>
</svg>
