<?xml version="1.0" encoding="utf-8"?>
<!-- Generator: Adobe Illustrator 16.2.1, SVG Export Plug-In . SVG Version: 6.00 Build 0)  -->
<!DOCTYPE svg PUBLIC "-//W3C//DTD SVG 1.1//EN" "http://www.w3.org/Graphics/SVG/1.1/DTD/svg11.dtd">
<svg version="1.1" id="レイヤー_1" xmlns="http://www.w3.org/2000/svg" xmlns:xlink="http://www.w3.org/1999/xlink" x="0px"
	 y="0px" width="480px" height="650px" viewBox="0 0 480 650" enable-background="new 0 0 480 650" xml:space="preserve">
<g id="japanese_words">
	<text transform="matrix(1 0 0 1 50 421)" font-family="'KozGoPr6N-Regular-83pv-RKSJ-H'" font-size="14">入口</text>
</g>
<g id="english_words" display="none">
	<text transform="matrix(1 0 0 1 50 450)" display="inline" font-family="'KozGoPr6N-Regular-83pv-RKSJ-H'" font-size="14">Entrance</text>
</g>
<path id="wall" fill="none" stroke="#000000" stroke-width="3" d="M60,371V51h360v500H60V451"/>
<rect id="pc_1_off" x="96.403" y="90.85" fill="#64C5E5" stroke="#64C5E5" stroke-miterlimit="10" width="35.062" height="23.111"/>
<rect id="pc_2_off" x="142.46" y="90.85" fill="#64C5E5" stroke="#64C5E5" stroke-miterlimit="10" width="35.062" height="23.111"/>
<rect id="pc_3_off" x="188.53" y="90.85" fill="#64C5E5" stroke="#64C5E5" stroke-miterlimit="10" width="35.062" height="23.111"/>
<rect id="pc_4_off" x="96.403" y="146.96" fill="#64C5E5" stroke="#64C5E5" stroke-miterlimit="10" width="35.062" height="23.111"/>
<rect id="pc_5_off" x="142.46" y="146.96" fill="#64C5E5" stroke="#64C5E5" stroke-miterlimit="10" width="35.062" height="23.111"/>
<rect id="pc_6_off" x="188.53" y="146.96" fill="#64C5E5" stroke="#64C5E5" stroke-miterlimit="10" width="35.062" height="23.111"/>
<rect id="pc_7_off" x="96.403" y="203.07" fill="#64C5E5" stroke="#64C5E5" stroke-miterlimit="10" width="35.062" height="23.111"/>
<rect id="pc_8_off" x="142.46" y="203.07" fill="#64C5E5" stroke="#64C5E5" stroke-miterlimit="10" width="35.062" height="23.111"/>
<rect id="pc_9_off" x="188.53" y="203.07" fill="#64C5E5" stroke="#64C5E5" stroke-miterlimit="10" width="35.062" height="23.111"/>
<rect id="pc_10_off" x="142.46" y="259.18" fill="#64C5E5" stroke="#64C5E5" stroke-miterlimit="10" width="35.062" height="23.111"/>
<rect id="pc_11_off" x="188.53" y="259.18" fill="#64C5E5" stroke="#64C5E5" stroke-miterlimit="10" width="35.062" height="23.111"/>
<rect id="pc_12_off" x="301.9" y="90.85" fill="#64C5E5" stroke="#64C5E5" stroke-miterlimit="10" width="35.062" height="23.111"/>
<rect id="pc_13_off" x="347.96" y="90.85" fill="#64C5E5" stroke="#64C5E5" stroke-miterlimit="10" width="35.062" height="23.111"/>
<rect id="pc_14_off" x="301.9" y="146.96" fill="#64C5E5" stroke="#64C5E5" stroke-miterlimit="10" width="35.062" height="23.111"/>
<rect id="pc_15_off" x="347.96" y="146.96" fill="#64C5E5" stroke="#64C5E5" stroke-miterlimit="10" width="35.062" height="23.111"/>
<rect id="pc_16_off" x="301.9" y="203.07" fill="#64C5E5" stroke="#64C5E5" stroke-miterlimit="10" width="35.062" height="23.111"/>
<rect id="pc_17_off" x="347.96" y="203.07" fill="#64C5E5" stroke="#64C5E5" stroke-miterlimit="10" width="35.062" height="23.111"/>
<rect id="pc_18_off" x="301.9" y="259.18" fill="#64C5E5" stroke="#64C5E5" stroke-miterlimit="10" width="35.062" height="23.111"/>
<rect id="pc_19_off" x="347.96" y="259.18" fill="#64C5E5" stroke="#64C5E5" stroke-miterlimit="10" width="35.062" height="23.111"/>
<rect id="pc_20_off" x="301.9" y="380.029" fill="#64C5E5" stroke="#64C5E5" stroke-miterlimit="10" width="35.062" height="23.111"/>
<rect id="pc_21_off" x="347.96" y="380.029" fill="#64C5E5" stroke="#64C5E5" stroke-miterlimit="10" width="35.062" height="23.111"/>
<rect id="pc_22_off" x="301.9" y="436.14" fill="#64C5E5" stroke="#64C5E5" stroke-miterlimit="10" width="35.062" height="23.111"/>
<rect id="pc_23_off" x="347.96" y="436.14" fill="#64C5E5" stroke="#64C5E5" stroke-miterlimit="10" width="35.062" height="23.111"/>
<rect id="pc_24_off" x="301.9" y="492.25" fill="#64C5E5" stroke="#64C5E5" stroke-miterlimit="10" width="35.062" height="23.111"/>
<rect id="pc_25_off" x="347.96" y="492.25" fill="#64C5E5" stroke="#64C5E5" stroke-miterlimit="10" width="35.062" height="23.111"/>
<rect id="pc_26_off" x="324.93" y="61" fill="#64C5E5" stroke="#64C5E5" stroke-miterlimit="10" width="35.062" height="23.111"/>
</svg>
