<?xml version="1.0" encoding="utf-8"?>
<!-- Generator: Adobe Illustrator 16.2.1, SVG Export Plug-In . SVG Version: 6.00 Build 0)  -->
<!DOCTYPE svg PUBLIC "-//W3C//DTD SVG 1.1//EN" "http://www.w3.org/Graphics/SVG/1.1/DTD/svg11.dtd">
<svg version="1.1" id="レイヤー_1" xmlns="http://www.w3.org/2000/svg" xmlns:xlink="http://www.w3.org/1999/xlink" x="0px"
	 y="0px" width="480px" height="650px" viewBox="0 0 480 650" enable-background="new 0 0 480 650" xml:space="preserve">
<g id="japanese_words">
	<text transform="matrix(1 0 0 1 376.4199 635.2305)" font-family="'KozGoPr6N-Regular-83pv-RKSJ-H'" font-size="14">入口</text>
</g>
<g id="english_words" display="none">
	
		<text transform="matrix(1 0 0 1 376.4199 635.2305)" display="inline" font-family="'KozGoPr6N-Regular-83pv-RKSJ-H'" font-size="14">Entrance</text>
</g>
<rect id="pc_11_off" x="178.4" y="322.32" fill="#64C5E5" stroke="#64C5E5" stroke-miterlimit="10" width="27.862" height="31.132"/>
<rect id="pc_10_off" x="131.54" y="322.32" fill="#64C5E5" stroke="#64C5E5" stroke-miterlimit="10" width="27.862" height="31.132"/>
<rect id="pc_5_off" x="131.54" y="212.05" fill="#64C5E5" stroke="#64C5E5" stroke-miterlimit="10" width="27.862" height="31.132"/>
<rect id="pc_4_off" x="84.68" y="212.05" fill="#64C5E5" stroke="#64C5E5" stroke-miterlimit="10" width="27.862" height="31.132"/>
<rect id="pc_6_off" x="178.4" y="212.05" fill="#64C5E5" stroke="#64C5E5" stroke-miterlimit="10" width="27.862" height="31.132"/>
<rect id="pc_16_off" x="131.54" y="487.71" fill="#64C5E5" stroke="#64C5E5" stroke-miterlimit="10" width="27.862" height="31.132"/>
<rect id="pc_17_off" x="178.4" y="487.71" fill="#64C5E5" stroke="#64C5E5" stroke-miterlimit="10" width="27.862" height="31.132"/>
<rect id="pc_34_off" x="318.54" y="100.79" fill="#64C5E5" stroke="#64C5E5" stroke-miterlimit="10" width="27.862" height="31.132"/>
<rect id="pc_20_off" x="365.4" y="155.92" fill="#64C5E5" stroke="#64C5E5" stroke-miterlimit="10" width="27.861" height="31.132"/>
<rect id="pc_18_off" x="271.68" y="155.92" fill="#64C5E5" stroke="#64C5E5" stroke-miterlimit="10" width="27.862" height="31.132"/>
<rect id="pc_19_off" x="318.54" y="155.92" fill="#64C5E5" stroke="#64C5E5" stroke-miterlimit="10" width="27.862" height="31.132"/>
<rect id="pc_30_off" x="271.68" y="431.58" fill="#64C5E5" stroke="#64C5E5" stroke-miterlimit="10" width="27.862" height="31.132"/>
<rect id="pc_31_off" x="318.54" y="431.58" fill="#64C5E5" stroke="#64C5E5" stroke-miterlimit="10" width="27.862" height="31.132"/>
<rect id="pc_12_off" x="131.54" y="377.45" fill="#64C5E5" stroke="#64C5E5" stroke-miterlimit="10" width="27.862" height="31.132"/>
<rect id="pc_13_off" x="178.4" y="377.45" fill="#64C5E5" stroke="#64C5E5" stroke-miterlimit="10" width="27.862" height="31.132"/>
<rect id="pc_14_off" x="131.54" y="432.58" fill="#64C5E5" stroke="#64C5E5" stroke-miterlimit="10" width="27.862" height="31.132"/>
<rect id="pc_15_off" x="178.4" y="432.58" fill="#64C5E5" stroke="#64C5E5" stroke-miterlimit="10" width="27.862" height="31.132"/>
<rect id="pc_8_off" x="131.54" y="267.18" fill="#64C5E5" stroke="#64C5E5" stroke-miterlimit="10" width="27.862" height="31.132"/>
<rect id="pc_7_off" x="84.68" y="267.18" fill="#64C5E5" stroke="#64C5E5" stroke-miterlimit="10" width="27.862" height="31.132"/>
<rect id="pc_9_off" x="178.4" y="267.18" fill="#64C5E5" stroke="#64C5E5" stroke-miterlimit="10" width="27.862" height="31.132"/>
<rect id="pc_28_off" x="271.68" y="376.45" fill="#64C5E5" stroke="#64C5E5" stroke-miterlimit="10" width="27.862" height="31.132"/>
<rect id="pc_29_off" x="318.54" y="376.45" fill="#64C5E5" stroke="#64C5E5" stroke-miterlimit="10" width="27.862" height="31.132"/>
<rect id="pc_24_off" x="271.68" y="266.18" fill="#64C5E5" stroke="#64C5E5" stroke-miterlimit="10" width="27.862" height="31.132"/>
<rect id="pc_25_off" x="318.54" y="266.18" fill="#64C5E5" stroke="#64C5E5" stroke-miterlimit="10" width="27.862" height="31.132"/>
<rect id="pc_26_off" x="271.68" y="321.32" fill="#64C5E5" stroke="#64C5E5" stroke-miterlimit="10" width="27.862" height="31.132"/>
<rect id="pc_27_off" x="318.54" y="321.32" fill="#64C5E5" stroke="#64C5E5" stroke-miterlimit="10" width="27.862" height="31.132"/>
<rect id="pc_33_off" x="318.54" y="486.71" fill="#64C5E5" stroke="#64C5E5" stroke-miterlimit="10" width="27.862" height="31.132"/>
<rect id="pc_32_off" x="271.68" y="486.71" fill="#64C5E5" stroke="#64C5E5" stroke-miterlimit="10" width="27.862" height="31.132"/>
<rect id="pc_1_off" x="84.68" y="156.92" fill="#64C5E5" stroke="#64C5E5" stroke-miterlimit="10" width="27.862" height="31.132"/>
<rect id="pc_2_off" x="131.54" y="156.92" fill="#64C5E5" stroke="#64C5E5" stroke-miterlimit="10" width="27.862" height="31.132"/>
<rect id="pc_3_off" x="178.4" y="156.92" fill="#64C5E5" stroke="#64C5E5" stroke-miterlimit="10" width="27.862" height="31.132"/>
<rect id="pc_22_off" x="318.54" y="211.05" fill="#64C5E5" stroke="#64C5E5" stroke-miterlimit="10" width="27.862" height="31.132"/>
<rect id="pc_21_off" x="271.68" y="211.05" fill="#64C5E5" stroke="#64C5E5" stroke-miterlimit="10" width="27.862" height="31.132"/>
<rect id="pc_23_off" x="365.4" y="211.05" fill="#64C5E5" stroke="#64C5E5" stroke-miterlimit="10" width="27.861" height="31.132"/>
<line fill="none" stroke="#000000" stroke-width="3" stroke-miterlimit="10" x1="30.46" y1="79.609" x2="30.46" y2="606.234"/>
<line fill="none" stroke="#000000" stroke-width="3" stroke-miterlimit="10" x1="30.46" y1="604.239" x2="367.56" y2="604.239"/>
<line fill="none" stroke="#000000" stroke-width="3" stroke-miterlimit="10" x1="415.615" y1="604.239" x2="451.501" y2="604.239"/>
<line fill="none" stroke="#000000" stroke-width="3" stroke-miterlimit="10" x1="449.54" y1="604.239" x2="449.54" y2="79.594"/>
<line fill="none" stroke="#000000" stroke-width="3" stroke-miterlimit="10" x1="449.54" y1="81.599" x2="30.46" y2="81.599"/>
</svg>
