<?xml version="1.0" encoding="UTF-8" standalone="no"?>
<!-- Generator: Adobe Illustrator 16.2.1, SVG Export Plug-In . SVG Version: 6.00 Build 0)  -->
<!DOCTYPE svg  PUBLIC '-//W3C//DTD SVG 1.1//EN'  'http://www.w3.org/Graphics/SVG/1.1/DTD/svg11.dtd'>
<svg id="レイヤー_1" xmlns="http://www.w3.org/2000/svg" xml:space="preserve" height="550px" viewBox="0 0 480 550" width="480px" version="1.1" y="0px" x="0px" xmlns:xlink="http://www.w3.org/1999/xlink" enable-background="new 0 0 480 550">
<g id="japanese_words">
	<text font-size="14" font-family="&apos;KozGoPr6N-Regular-83pv-RKSJ-H&apos;" transform="translate(420 150)">入口</text>
</g>
<g id="english_words" display="none">
	<text font-size="14" font-family="&apos;KozGoPr6N-Regular-83pv-RKSJ-H&apos;" transform="translate(420 150)" display="inline">Entrance</text>
</g>
<path id="wall" d="m440 120v-30h-400v400h400v-300" stroke="#000" stroke-width="3" fill="none"/>
<rect id="pc_1_off" height="16.885" width="34.498" stroke="#64C5E5" stroke-miterlimit="10" y="364.1" x="60.386" fill="#64C5E5"/>
<rect id="pc_2_off" height="16.885" width="34.498" stroke="#64C5E5" stroke-miterlimit="10" y="364.1" x="103.88" fill="#64C5E5"/>
<rect id="pc_3_off" height="16.885" width="34.498" stroke="#64C5E5" stroke-miterlimit="10" y="364.1" x="147.38" fill="#64C5E5"/>
<rect id="pc_4_off" height="16.885" width="34.498" stroke="#64C5E5" stroke-miterlimit="10" y="364.1" x="190.88" fill="#64C5E5"/>
<rect id="pc_5_off" height="16.885" width="34.498" stroke="#64C5E5" stroke-miterlimit="10" y="364.1" x="254.25" fill="#64C5E5"/>
<rect id="pc_6_off" height="16.885" width="34.498" stroke="#64C5E5" stroke-miterlimit="10" y="364.1" x="297.75" fill="#64C5E5"/>
<rect id="pc_7_off" height="16.885" width="34.498" stroke="#64C5E5" stroke-miterlimit="10" y="364.1" x="341.25" fill="#64C5E5"/>
<rect id="pc_8_off" height="16.885" width="34.498" stroke="#64C5E5" stroke-miterlimit="10" y="364.1" x="384.74" fill="#64C5E5"/>
<rect id="pc_16_off" height="16.885" width="34.498" stroke="#64C5E5" stroke-miterlimit="10" y="341.22" x="60.386" fill="#64C5E5"/>
<rect id="pc_15_off" height="16.885" width="34.498" stroke="#64C5E5" stroke-miterlimit="10" y="341.22" x="103.88" fill="#64C5E5"/>
<rect id="pc_14_off" height="16.885" width="34.498" stroke="#64C5E5" stroke-miterlimit="10" y="341.22" x="147.38" fill="#64C5E5"/>
<rect id="pc_13_off" height="16.885" width="34.498" stroke="#64C5E5" stroke-miterlimit="10" y="341.22" x="190.88" fill="#64C5E5"/>
<rect id="pc_12_off" height="16.885" width="34.498" stroke="#64C5E5" stroke-miterlimit="10" y="341.22" x="254.25" fill="#64C5E5"/>
<rect id="pc_11_off" height="16.885" width="34.498" stroke="#64C5E5" stroke-miterlimit="10" y="341.22" x="297.75" fill="#64C5E5"/>
<rect id="pc_10_off" height="16.885" width="34.498" stroke="#64C5E5" stroke-miterlimit="10" y="341.22" x="341.25" fill="#64C5E5"/>
<rect id="pc_9_off" height="16.885" width="34.498" stroke="#64C5E5" stroke-miterlimit="10" y="341.22" x="384.74" fill="#64C5E5"/>
<rect id="pc_17_off" height="16.885" width="34.498" stroke="#64C5E5" stroke-miterlimit="10" y="292.06" x="60.386" fill="#64C5E5"/>
<rect id="pc_18_off" height="16.885" width="34.498" stroke="#64C5E5" stroke-miterlimit="10" y="292.06" x="103.88" fill="#64C5E5"/>
<rect id="pc_19_off" height="16.885" width="34.498" stroke="#64C5E5" stroke-miterlimit="10" y="292.06" x="147.38" fill="#64C5E5"/>
<rect id="pc_20_off" height="16.885" width="34.498" stroke="#64C5E5" stroke-miterlimit="10" y="292.06" x="190.88" fill="#64C5E5"/>
<rect id="pc_21_off" height="16.884" width="34.498" stroke="#64C5E5" stroke-miterlimit="10" y="292.05" x="254.25" fill="#64C5E5"/>
<rect id="pc_22_off" height="16.884" width="34.498" stroke="#64C5E5" stroke-miterlimit="10" y="292.05" x="297.75" fill="#64C5E5"/>
<rect id="pc_23_off" height="16.884" width="34.498" stroke="#64C5E5" stroke-miterlimit="10" y="292.05" x="341.25" fill="#64C5E5"/>
<rect id="pc_24_off" height="16.884" width="34.498" stroke="#64C5E5" stroke-miterlimit="10" y="292.05" x="384.74" fill="#64C5E5"/>
<rect id="pc_32_off" height="16.885" width="34.498" stroke="#64C5E5" stroke-miterlimit="10" y="269.17" x="60.386" fill="#64C5E5"/>
<rect id="pc_31_off" height="16.885" width="34.498" stroke="#64C5E5" stroke-miterlimit="10" y="269.17" x="103.88" fill="#64C5E5"/>
<rect id="pc_30_off" height="16.885" width="34.498" stroke="#64C5E5" stroke-miterlimit="10" y="269.17" x="147.38" fill="#64C5E5"/>
<rect id="pc_29_off" height="16.885" width="34.498" stroke="#64C5E5" stroke-miterlimit="10" y="269.17" x="190.88" fill="#64C5E5"/>
<rect id="pc_28_off" height="16.883" width="34.498" stroke="#64C5E5" stroke-miterlimit="10" y="269.17" x="254.25" fill="#64C5E5"/>
<rect id="pc_27_off" height="16.883" width="34.498" stroke="#64C5E5" stroke-miterlimit="10" y="269.17" x="297.75" fill="#64C5E5"/>
<rect id="pc_26_off" height="16.883" width="34.498" stroke="#64C5E5" stroke-miterlimit="10" y="269.17" x="341.25" fill="#64C5E5"/>
<rect id="pc_25_off" height="16.883" width="34.498" stroke="#64C5E5" stroke-miterlimit="10" y="269.17" x="384.74" fill="#64C5E5"/>
<rect id="pc_33_off" height="16.884" width="34.498" stroke="#64C5E5" stroke-miterlimit="10" y="213.77" x="60.386" fill="#64C5E5"/>
<rect id="pc_34_off" height="16.884" width="34.498" stroke="#64C5E5" stroke-miterlimit="10" y="213.77" x="103.88" fill="#64C5E5"/>
<rect id="pc_35_off" height="16.884" width="34.498" stroke="#64C5E5" stroke-miterlimit="10" y="213.77" x="147.38" fill="#64C5E5"/>
<rect id="pc_36_off" height="16.884" width="34.498" stroke="#64C5E5" stroke-miterlimit="10" y="213.77" x="190.88" fill="#64C5E5"/>
<rect id="pc_37_off" height="16.884" width="34.498" stroke="#64C5E5" stroke-miterlimit="10" y="213.77" x="234.38" fill="#64C5E5"/>
<rect id="pc_38_off" height="16.884" width="34.498" stroke="#64C5E5" stroke-miterlimit="10" y="213.77" x="277.88" fill="#64C5E5"/>
<rect id="pc_44_off" height="16.884" width="34.498" stroke="#64C5E5" stroke-miterlimit="10" y="190.89" x="60.386" fill="#64C5E5"/>
<rect id="pc_43_off" height="16.884" width="34.498" stroke="#64C5E5" stroke-miterlimit="10" y="190.89" x="103.88" fill="#64C5E5"/>
<rect id="pc_42_off" height="16.884" width="34.498" stroke="#64C5E5" stroke-miterlimit="10" y="190.89" x="147.38" fill="#64C5E5"/>
<rect id="pc_41_off" height="16.884" width="34.498" stroke="#64C5E5" stroke-miterlimit="10" y="190.89" x="190.88" fill="#64C5E5"/>
<rect id="pc_40_off" height="16.884" width="34.498" stroke="#64C5E5" stroke-miterlimit="10" y="190.89" x="234.38" fill="#64C5E5"/>
<rect id="pc_39_off" height="16.884" width="34.498" stroke="#64C5E5" stroke-miterlimit="10" y="190.89" x="277.88" fill="#64C5E5"/>
</svg>
