<?xml version="1.0" encoding="utf-8"?>
<!-- Generator: Adobe Illustrator 16.2.1, SVG Export Plug-In . SVG Version: 6.00 Build 0)  -->
<!DOCTYPE svg PUBLIC "-//W3C//DTD SVG 1.1//EN" "http://www.w3.org/Graphics/SVG/1.1/DTD/svg11.dtd">
<svg version="1.1" id="レイヤー_1" xmlns="http://www.w3.org/2000/svg" xmlns:xlink="http://www.w3.org/1999/xlink" x="0px"
	 y="0px" width="480px" height="550px" viewBox="0 0 480 550" enable-background="new 0 0 480 550" xml:space="preserve">
<g id="japanese_words">
	<text transform="matrix(1 0 0 1 232.0972 432.7871)" font-family="'KozGoPr6N-Regular-83pv-RKSJ-H'" font-size="14">入口</text>
</g>
<g id="english_words" display="none">
	
		<text transform="matrix(1 0 0 1 218.3848 432.7871)" display="inline" font-family="'KozGoPr6N-Regular-83pv-RKSJ-H'" font-size="14">Entrance</text>
</g>
<rect id="pc_33_off" x="60.386" y="362.683" fill="#64C5E5" stroke="#64C5E5" stroke-miterlimit="10" width="34.498" height="16.885"/>
<rect id="pc_34_off" x="100.553" y="362.683" fill="#64C5E5" stroke="#64C5E5" stroke-miterlimit="10" width="34.498" height="16.885"/>
<rect id="pc_21_off" x="60.386" y="340.129" fill="#64C5E5" stroke="#64C5E5" stroke-miterlimit="10" width="34.498" height="16.885"/>
<rect id="pc_22_off" x="100.553" y="340.129" fill="#64C5E5" stroke="#64C5E5" stroke-miterlimit="10" width="34.498" height="16.885"/>
<rect id="pc_23_off" x="140.72" y="340.129" fill="#64C5E5" stroke="#64C5E5" stroke-miterlimit="10" width="34.498" height="16.885"/>
<rect id="pc_24_off" x="180.887" y="340.129" fill="#64C5E5" stroke="#64C5E5" stroke-miterlimit="10" width="34.498" height="16.885"/>
<rect id="pc_32_off" x="276.969" y="362.683" fill="#64C5E5" stroke="#64C5E5" stroke-miterlimit="10" width="34.497" height="16.885"/>
<rect id="pc_31_off" x="317.135" y="362.683" fill="#64C5E5" stroke="#64C5E5" stroke-miterlimit="10" width="34.498" height="16.885"/>
<rect id="pc_28_off" x="276.969" y="340.129" fill="#64C5E5" stroke="#64C5E5" stroke-miterlimit="10" width="34.497" height="16.885"/>
<rect id="pc_27_off" x="317.135" y="340.129" fill="#64C5E5" stroke="#64C5E5" stroke-miterlimit="10" width="34.498" height="16.885"/>
<rect id="pc_26_off" x="357.302" y="340.129" fill="#64C5E5" stroke="#64C5E5" stroke-miterlimit="10" width="34.497" height="16.885"/>
<rect id="pc_25_off" x="397.469" y="340.129" fill="#64C5E5" stroke="#64C5E5" stroke-miterlimit="10" width="34.498" height="16.885"/>
<rect id="pc_30_off" x="357.303" y="362.683" fill="#64C5E5" stroke="#64C5E5" stroke-miterlimit="10" width="34.497" height="16.885"/>
<rect id="pc_29_off" x="397.469" y="362.683" fill="#64C5E5" stroke="#64C5E5" stroke-miterlimit="10" width="34.498" height="16.885"/>
<rect id="pc_12_off" x="276.969" y="262.328" fill="#64C5E5" stroke="#64C5E5" stroke-miterlimit="10" width="34.497" height="16.885"/>
<rect id="pc_11_off" x="276.969" y="239.773" fill="#64C5E5" stroke="#64C5E5" stroke-miterlimit="10" width="34.497" height="16.885"/>
<rect id="pc_10_off" x="276.969" y="217.22" fill="#64C5E5" stroke="#64C5E5" stroke-miterlimit="10" width="34.497" height="16.885"/>
<rect id="pc_9_off" x="276.969" y="194.666" fill="#64C5E5" stroke="#64C5E5" stroke-miterlimit="10" width="34.497" height="16.885"/>
<rect id="pc_8_off" x="317.135" y="262.328" fill="#64C5E5" stroke="#64C5E5" stroke-miterlimit="10" width="34.498" height="16.885"/>
<rect id="pc_7_off" x="317.135" y="239.773" fill="#64C5E5" stroke="#64C5E5" stroke-miterlimit="10" width="34.498" height="16.885"/>
<rect id="pc_6_off" x="317.135" y="217.22" fill="#64C5E5" stroke="#64C5E5" stroke-miterlimit="10" width="34.498" height="16.885"/>
<rect id="pc_5_off" x="317.135" y="194.666" fill="#64C5E5" stroke="#64C5E5" stroke-miterlimit="10" width="34.498" height="16.885"/>
<rect id="pc_4_off" x="397.469" y="262.328" fill="#64C5E5" stroke="#64C5E5" stroke-miterlimit="10" width="34.497" height="16.884"/>
<rect id="pc_2_off" x="397.469" y="217.22" fill="#64C5E5" stroke="#64C5E5" stroke-miterlimit="10" width="34.498" height="16.885"/>
<rect id="pc_3_off" x="397.469" y="239.773" fill="#64C5E5" stroke="#64C5E5" stroke-miterlimit="10" width="34.497" height="16.885"/>
<rect id="pc_1_off" x="397.469" y="194.666" fill="#64C5E5" stroke="#64C5E5" stroke-miterlimit="10" width="34.498" height="16.885"/>
<rect id="pc_14_off" x="60.386" y="194.666" fill="#64C5E5" stroke="#64C5E5" stroke-miterlimit="10" width="34.497" height="16.885"/>
<rect id="pc_13_off" x="100.553" y="194.666" fill="#64C5E5" stroke="#64C5E5" stroke-miterlimit="10" width="34.498" height="16.885"/>
<rect id="pc_20_off" x="60.386" y="262.328" fill="#64C5E5" stroke="#64C5E5" stroke-miterlimit="10" width="34.497" height="16.885"/>
<rect id="pc_19_off" x="100.552" y="262.328" fill="#64C5E5" stroke="#64C5E5" stroke-miterlimit="10" width="34.498" height="16.885"/>
<rect id="pc_18_off" x="60.386" y="239.774" fill="#64C5E5" stroke="#64C5E5" stroke-miterlimit="10" width="34.497" height="16.885"/>
<rect id="pc_17_off" x="100.552" y="239.774" fill="#64C5E5" stroke="#64C5E5" stroke-miterlimit="10" width="34.498" height="16.885"/>
<rect id="pc_15_off" x="140.72" y="222.161" fill="#64C5E5" stroke="#64C5E5" stroke-miterlimit="10" width="16.885" height="34.498"/>
<rect id="pc_16_off" x="140.72" y="262.329" fill="#64C5E5" stroke="#64C5E5" stroke-miterlimit="10" width="16.885" height="34.498"/>
<line fill="none" stroke="#000000" stroke-width="3" stroke-miterlimit="10" x1="215.385" y1="429" x2="39.5" y2="429"/>
<line fill="none" stroke="#000000" stroke-width="3" stroke-miterlimit="10" x1="453.102" y1="429" x2="277.217" y2="429"/>
<line fill="none" stroke="#231815" stroke-width="3" stroke-miterlimit="10" x1="39.5" y1="430.484" x2="39.5" y2="154.969"/>
<line fill="none" stroke="#231815" stroke-width="3" stroke-miterlimit="10" x1="39.5" y1="156.5" x2="453.102" y2="156.5"/>
<line fill="none" stroke="#000000" stroke-width="3" stroke-miterlimit="10" x1="453.102" y1="155" x2="453.102" y2="430.484"/>
</svg>
