<?xml version="1.0" encoding="utf-8"?>
<!-- Generator: Adobe Illustrator 16.2.1, SVG Export Plug-In . SVG Version: 6.00 Build 0)  -->
<!DOCTYPE svg PUBLIC "-//W3C//DTD SVG 1.1//EN" "http://www.w3.org/Graphics/SVG/1.1/DTD/svg11.dtd">
<svg version="1.1" id="レイヤー_1" xmlns="http://www.w3.org/2000/svg" xmlns:xlink="http://www.w3.org/1999/xlink" x="0px"
	 y="0px" width="480px" height="550px" viewBox="0 0 480 550" enable-background="new 0 0 480 550" xml:space="preserve">
<g id="japanese_words">
	<text transform="matrix(1 0 0 1 420 150)" font-family="'KozGoPr6N-Regular-83pv-RKSJ-H'" font-size="14">入口</text>
</g>
<g id="english_words" display="none">
	<text transform="matrix(1 0 0 1 420 150)" display="inline" font-family="'KozGoPr6N-Regular-83pv-RKSJ-H'" font-size="14">Entrance</text>
</g>
<path id="wall" fill="none" stroke="#000000" stroke-width="3" d="M440,120V90H40v400h400V190"/>
<rect id="pc_1_off" x="60.386" y="364.1" fill="#64C5E5" stroke="#64C5E5" stroke-miterlimit="10" width="34.498" height="16.885"/>
<rect id="pc_2_off" x="103.88" y="364.1" fill="#64C5E5" stroke="#64C5E5" stroke-miterlimit="10" width="34.498" height="16.885"/>
<rect id="pc_3_off" x="147.38" y="364.1" fill="#64C5E5" stroke="#64C5E5" stroke-miterlimit="10" width="34.498" height="16.885"/>
<rect id="pc_4_off" x="190.88" y="364.1" fill="#64C5E5" stroke="#64C5E5" stroke-miterlimit="10" width="34.498" height="16.885"/>
<rect id="pc_5_off" x="254.25" y="364.1" fill="#64C5E5" stroke="#64C5E5" stroke-miterlimit="10" width="34.498" height="16.885"/>
<rect id="pc_6_off" x="297.75" y="364.1" fill="#64C5E5" stroke="#64C5E5" stroke-miterlimit="10" width="34.498" height="16.885"/>
<rect id="pc_7_off" x="341.25" y="364.1" fill="#64C5E5" stroke="#64C5E5" stroke-miterlimit="10" width="34.498" height="16.885"/>
<rect id="pc_8_off" x="384.74" y="364.1" fill="#64C5E5" stroke="#64C5E5" stroke-miterlimit="10" width="34.498" height="16.885"/>
<rect id="pc_16_off" x="60.386" y="341.221" fill="#64C5E5" stroke="#64C5E5" stroke-miterlimit="10" width="34.498" height="16.885"/>
<rect id="pc_15_off" x="103.88" y="341.221" fill="#64C5E5" stroke="#64C5E5" stroke-miterlimit="10" width="34.498" height="16.885"/>
<rect id="pc_14_off" x="147.38" y="341.221" fill="#64C5E5" stroke="#64C5E5" stroke-miterlimit="10" width="34.498" height="16.885"/>
<rect id="pc_13_off" x="190.88" y="341.221" fill="#64C5E5" stroke="#64C5E5" stroke-miterlimit="10" width="34.498" height="16.885"/>
<rect id="pc_12_off" x="254.25" y="341.221" fill="#64C5E5" stroke="#64C5E5" stroke-miterlimit="10" width="34.498" height="16.885"/>
<rect id="pc_11_off" x="297.75" y="341.221" fill="#64C5E5" stroke="#64C5E5" stroke-miterlimit="10" width="34.498" height="16.885"/>
<rect id="pc_10_off" x="341.25" y="341.221" fill="#64C5E5" stroke="#64C5E5" stroke-miterlimit="10" width="34.498" height="16.885"/>
<rect id="pc_9_off" x="384.74" y="341.221" fill="#64C5E5" stroke="#64C5E5" stroke-miterlimit="10" width="34.498" height="16.885"/>
<rect id="pc_17_off" x="60.386" y="292.061" fill="#64C5E5" stroke="#64C5E5" stroke-miterlimit="10" width="34.498" height="16.885"/>
<rect id="pc_18_off" x="103.88" y="292.061" fill="#64C5E5" stroke="#64C5E5" stroke-miterlimit="10" width="34.498" height="16.885"/>
<rect id="pc_19_off" x="147.38" y="292.061" fill="#64C5E5" stroke="#64C5E5" stroke-miterlimit="10" width="34.498" height="16.885"/>
<rect id="pc_20_off" x="190.88" y="292.061" fill="#64C5E5" stroke="#64C5E5" stroke-miterlimit="10" width="34.498" height="16.885"/>
<rect id="pc_21_off" x="254.25" y="292.05" fill="#64C5E5" stroke="#64C5E5" stroke-miterlimit="10" width="34.498" height="16.884"/>
<rect id="pc_22_off" x="297.75" y="292.05" fill="#64C5E5" stroke="#64C5E5" stroke-miterlimit="10" width="34.498" height="16.884"/>
<rect id="pc_23_off" x="341.25" y="292.05" fill="#64C5E5" stroke="#64C5E5" stroke-miterlimit="10" width="34.498" height="16.884"/>
<rect id="pc_24_off" x="384.74" y="292.05" fill="#64C5E5" stroke="#64C5E5" stroke-miterlimit="10" width="34.498" height="16.884"/>
<rect id="pc_32_off" x="60.386" y="269.17" fill="#64C5E5" stroke="#64C5E5" stroke-miterlimit="10" width="34.498" height="16.885"/>
<rect id="pc_31_off" x="103.88" y="269.17" fill="#64C5E5" stroke="#64C5E5" stroke-miterlimit="10" width="34.498" height="16.885"/>
<rect id="pc_30_off" x="147.38" y="269.17" fill="#64C5E5" stroke="#64C5E5" stroke-miterlimit="10" width="34.498" height="16.885"/>
<rect id="pc_29_off" x="190.88" y="269.17" fill="#64C5E5" stroke="#64C5E5" stroke-miterlimit="10" width="34.498" height="16.885"/>
<rect id="pc_28_off" x="254.25" y="269.17" fill="#64C5E5" stroke="#64C5E5" stroke-miterlimit="10" width="34.498" height="16.883"/>
<rect id="pc_27_off" x="297.75" y="269.17" fill="#64C5E5" stroke="#64C5E5" stroke-miterlimit="10" width="34.498" height="16.883"/>
<rect id="pc_26_off" x="341.25" y="269.17" fill="#64C5E5" stroke="#64C5E5" stroke-miterlimit="10" width="34.498" height="16.883"/>
<rect id="pc_25_off" x="384.74" y="269.17" fill="#64C5E5" stroke="#64C5E5" stroke-miterlimit="10" width="34.498" height="16.883"/>
<rect id="pc_33_off" x="60.386" y="213.77" fill="#64C5E5" stroke="#64C5E5" stroke-miterlimit="10" width="34.498" height="16.884"/>
<rect id="pc_34_off" x="103.88" y="213.77" fill="#64C5E5" stroke="#64C5E5" stroke-miterlimit="10" width="34.498" height="16.884"/>
<rect id="pc_35_off" x="147.38" y="213.77" fill="#64C5E5" stroke="#64C5E5" stroke-miterlimit="10" width="34.498" height="16.884"/>
<rect id="pc_36_off" x="190.88" y="213.77" fill="#64C5E5" stroke="#64C5E5" stroke-miterlimit="10" width="34.498" height="16.884"/>
<rect id="pc_37_off" x="234.38" y="213.77" fill="#64C5E5" stroke="#64C5E5" stroke-miterlimit="10" width="34.498" height="16.884"/>
<rect id="pc_38_off" x="277.88" y="213.77" fill="#64C5E5" stroke="#64C5E5" stroke-miterlimit="10" width="34.498" height="16.884"/>
<rect id="pc_44_off" x="60.386" y="190.89" fill="#64C5E5" stroke="#64C5E5" stroke-miterlimit="10" width="34.498" height="16.884"/>
<rect id="pc_43_off" x="103.88" y="190.89" fill="#64C5E5" stroke="#64C5E5" stroke-miterlimit="10" width="34.498" height="16.884"/>
<rect id="pc_42_off" x="147.38" y="190.89" fill="#64C5E5" stroke="#64C5E5" stroke-miterlimit="10" width="34.498" height="16.884"/>
<rect id="pc_41_off" x="190.88" y="190.89" fill="#64C5E5" stroke="#64C5E5" stroke-miterlimit="10" width="34.498" height="16.884"/>
<rect id="pc_40_off" x="234.38" y="190.89" fill="#64C5E5" stroke="#64C5E5" stroke-miterlimit="10" width="34.498" height="16.884"/>
<rect id="pc_39_off" x="277.88" y="190.89" fill="#64C5E5" stroke="#64C5E5" stroke-miterlimit="10" width="34.498" height="16.884"/>
</svg>
