<?xml version="1.0" encoding="utf-8"?>
<!-- Generator: Adobe Illustrator 16.2.1, SVG Export Plug-In . SVG Version: 6.00 Build 0)  -->
<!DOCTYPE svg PUBLIC "-//W3C//DTD SVG 1.1//EN" "http://www.w3.org/Graphics/SVG/1.1/DTD/svg11.dtd">
<svg version="1.1" id="レイヤー_1" xmlns="http://www.w3.org/2000/svg" xmlns:xlink="http://www.w3.org/1999/xlink" x="0px"
	 y="0px" width="480px" height="700px" viewBox="0 0 480 700" enable-background="new 0 0 480 700" xml:space="preserve">
<g id="japanese_words">
	<text transform="matrix(1 0 0 1 400.9102 89.75)" font-family="'KozGoPr6N-Regular-83pv-RKSJ-H'" font-size="14">入口</text>
</g>
<g id="english_words" display="none">
	
		<text transform="matrix(1 0 0 1 400.9102 157.75)" display="inline" font-family="'KozGoPr6N-Regular-83pv-RKSJ-H'" font-size="14">Entrance</text>
</g>
<rect id="pc_27_off" x="112.29" y="55.82" fill="#64C5E5" stroke="#64C5E5" stroke-miterlimit="10" width="29.946" height="12.132"/>
<rect id="pc_54_off" x="148.24" y="55.82" fill="#64C5E5" stroke="#64C5E5" stroke-miterlimit="10" width="29.946" height="12.132"/>
<rect id="pc_26_off" x="112.29" y="72.952" fill="#64C5E5" stroke="#64C5E5" stroke-miterlimit="10" width="29.946" height="12.132"/>
<rect id="pc_53_off" x="148.24" y="72.952" fill="#64C5E5" stroke="#64C5E5" stroke-miterlimit="10" width="29.946" height="12.132"/>
<rect id="pc_25_off" x="112.29" y="90.083" fill="#64C5E5" stroke="#64C5E5" stroke-miterlimit="10" width="29.946" height="12.132"/>
<rect id="pc_52_off" x="148.24" y="90.083" fill="#64C5E5" stroke="#64C5E5" stroke-miterlimit="10" width="29.946" height="12.132"/>
<rect id="pc_24_off" x="112.29" y="107.22" fill="#64C5E5" stroke="#64C5E5" stroke-miterlimit="10" width="29.946" height="12.132"/>
<rect id="pc_51_off" x="148.24" y="107.22" fill="#64C5E5" stroke="#64C5E5" stroke-miterlimit="10" width="29.946" height="12.132"/>
<rect id="pc_23_off" x="112.29" y="124.35" fill="#64C5E5" stroke="#64C5E5" stroke-miterlimit="10" width="29.946" height="12.132"/>
<rect id="pc_50_off" x="148.24" y="124.35" fill="#64C5E5" stroke="#64C5E5" stroke-miterlimit="10" width="29.946" height="12.132"/>
<rect id="pc_22_off" x="112.29" y="141.48" fill="#64C5E5" stroke="#64C5E5" stroke-miterlimit="10" width="29.946" height="12.132"/>
<rect id="pc_49_off" x="148.24" y="141.48" fill="#64C5E5" stroke="#64C5E5" stroke-miterlimit="10" width="29.946" height="12.132"/>
<rect id="pc_21_off" x="112.29" y="158.61" fill="#64C5E5" stroke="#64C5E5" stroke-miterlimit="10" width="29.946" height="12.132"/>
<rect id="pc_48_off" x="148.24" y="158.61" fill="#64C5E5" stroke="#64C5E5" stroke-miterlimit="10" width="29.946" height="12.132"/>
<rect id="pc_20_off" x="112.29" y="175.74" fill="#64C5E5" stroke="#64C5E5" stroke-miterlimit="10" width="29.946" height="12.132"/>
<rect id="pc_47_off" x="148.24" y="175.74" fill="#64C5E5" stroke="#64C5E5" stroke-miterlimit="10" width="29.946" height="12.132"/>
<rect id="pc_19_off" x="112.29" y="192.88" fill="#64C5E5" stroke="#64C5E5" stroke-miterlimit="10" width="29.946" height="12.132"/>
<rect id="pc_46_off" x="148.24" y="192.88" fill="#64C5E5" stroke="#64C5E5" stroke-miterlimit="10" width="29.946" height="12.132"/>
<rect id="pc_18_off" x="112.29" y="224.01" fill="#64C5E5" stroke="#64C5E5" stroke-miterlimit="10" width="29.946" height="12.132"/>
<rect id="pc_45_off" x="148.24" y="224.01" fill="#64C5E5" stroke="#64C5E5" stroke-miterlimit="10" width="29.946" height="12.132"/>
<rect id="pc_17_off" x="112.29" y="241.14" fill="#64C5E5" stroke="#64C5E5" stroke-miterlimit="10" width="29.946" height="12.132"/>
<rect id="pc_44_off" x="148.24" y="241.14" fill="#64C5E5" stroke="#64C5E5" stroke-miterlimit="10" width="29.946" height="12.132"/>
<rect id="pc_16_off" x="112.29" y="258.27" fill="#64C5E5" stroke="#64C5E5" stroke-miterlimit="10" width="29.946" height="12.132"/>
<rect id="pc_43_off" x="148.24" y="258.27" fill="#64C5E5" stroke="#64C5E5" stroke-miterlimit="10" width="29.946" height="12.132"/>
<rect id="pc_15_off" x="112.29" y="275.4" fill="#64C5E5" stroke="#64C5E5" stroke-miterlimit="10" width="29.946" height="12.132"/>
<rect id="pc_42_off" x="148.24" y="275.4" fill="#64C5E5" stroke="#64C5E5" stroke-miterlimit="10" width="29.946" height="12.132"/>
<rect id="pc_14_off" x="112.29" y="292.53" fill="#64C5E5" stroke="#64C5E5" stroke-miterlimit="10" width="29.946" height="12.132"/>
<rect id="pc_41_off" x="148.24" y="292.53" fill="#64C5E5" stroke="#64C5E5" stroke-miterlimit="10" width="29.946" height="12.132"/>
<rect id="pc_13_off" x="112.29" y="309.67" fill="#64C5E5" stroke="#64C5E5" stroke-miterlimit="10" width="29.946" height="12.132"/>
<rect id="pc_40_off" x="148.24" y="309.67" fill="#64C5E5" stroke="#64C5E5" stroke-miterlimit="10" width="29.946" height="12.132"/>
<rect id="pc_12_off" x="112.48" y="340.8" fill="#64C5E5" stroke="#64C5E5" stroke-miterlimit="10" width="29.946" height="12.134"/>
<rect id="pc_39_off" x="148.43" y="340.8" fill="#64C5E5" stroke="#64C5E5" stroke-miterlimit="10" width="29.946" height="12.134"/>
<rect id="pc_11_off" x="112.48" y="357.93" fill="#64C5E5" stroke="#64C5E5" stroke-miterlimit="10" width="29.946" height="12.131"/>
<rect id="pc_38_off" x="148.43" y="357.93" fill="#64C5E5" stroke="#64C5E5" stroke-miterlimit="10" width="29.946" height="12.131"/>
<rect id="pc_10_off" x="112.48" y="375.061" fill="#64C5E5" stroke="#64C5E5" stroke-miterlimit="10" width="29.946" height="12.133"/>
<rect id="pc_37_off" x="148.43" y="375.061" fill="#64C5E5" stroke="#64C5E5" stroke-miterlimit="10" width="29.946" height="12.133"/>
<rect id="pc_9_off" x="112.48" y="392.189" fill="#64C5E5" stroke="#64C5E5" stroke-miterlimit="10" width="29.946" height="12.131"/>
<rect id="pc_36_off" x="148.43" y="392.189" fill="#64C5E5" stroke="#64C5E5" stroke-miterlimit="10" width="29.946" height="12.131"/>
<rect id="pc_8_off" x="112.48" y="409.32" fill="#64C5E5" stroke="#64C5E5" stroke-miterlimit="10" width="29.946" height="12.133"/>
<rect id="pc_35_off" x="148.43" y="409.32" fill="#64C5E5" stroke="#64C5E5" stroke-miterlimit="10" width="29.946" height="12.133"/>
<rect id="pc_7_off" x="112.48" y="426.46" fill="#64C5E5" stroke="#64C5E5" stroke-miterlimit="10" width="29.946" height="12.131"/>
<rect id="pc_34_off" x="148.43" y="426.46" fill="#64C5E5" stroke="#64C5E5" stroke-miterlimit="10" width="29.946" height="12.131"/>
<rect id="pc_6_off" x="112.54" y="457.59" fill="#64C5E5" stroke="#64C5E5" stroke-miterlimit="10" width="29.946" height="12.133"/>
<rect id="pc_33_off" x="148.49" y="457.59" fill="#64C5E5" stroke="#64C5E5" stroke-miterlimit="10" width="29.946" height="12.133"/>
<rect id="pc_5_off" x="112.54" y="474.72" fill="#64C5E5" stroke="#64C5E5" stroke-miterlimit="10" width="29.946" height="12.131"/>
<rect id="pc_32_off" x="148.49" y="474.72" fill="#64C5E5" stroke="#64C5E5" stroke-miterlimit="10" width="29.946" height="12.131"/>
<rect id="pc_4_off" x="112.54" y="491.85" fill="#64C5E5" stroke="#64C5E5" stroke-miterlimit="10" width="29.946" height="12.135"/>
<rect id="pc_31_off" x="148.49" y="491.85" fill="#64C5E5" stroke="#64C5E5" stroke-miterlimit="10" width="29.946" height="12.135"/>
<rect id="pc_3_off" x="112.54" y="508.98" fill="#64C5E5" stroke="#64C5E5" stroke-miterlimit="10" width="29.946" height="12.131"/>
<rect id="pc_30_off" x="148.49" y="508.98" fill="#64C5E5" stroke="#64C5E5" stroke-miterlimit="10" width="29.946" height="12.131"/>
<rect id="pc_2_off" x="112.54" y="526.12" fill="#64C5E5" stroke="#64C5E5" stroke-miterlimit="10" width="29.946" height="12.133"/>
<rect id="pc_29_off" x="148.49" y="526.12" fill="#64C5E5" stroke="#64C5E5" stroke-miterlimit="10" width="29.946" height="12.133"/>
<rect id="pc_1_off" x="112.54" y="543.25" fill="#64C5E5" stroke="#64C5E5" stroke-miterlimit="10" width="29.946" height="12.131"/>
<rect id="pc_28_off" x="148.49" y="543.25" fill="#64C5E5" stroke="#64C5E5" stroke-miterlimit="10" width="29.946" height="12.131"/>
<rect id="pc_81_off" x="266.67" y="55.82" fill="#64C5E5" stroke="#64C5E5" stroke-miterlimit="10" width="29.946" height="12.132"/>
<rect id="pc_108_off" x="302.62" y="55.82" fill="#64C5E5" stroke="#64C5E5" stroke-miterlimit="10" width="29.946" height="12.132"/>
<rect id="pc_80_off" x="266.67" y="72.952" fill="#64C5E5" stroke="#64C5E5" stroke-miterlimit="10" width="29.946" height="12.132"/>
<rect id="pc_107_off" x="302.62" y="72.952" fill="#64C5E5" stroke="#64C5E5" stroke-miterlimit="10" width="29.946" height="12.132"/>
<rect id="pc_79_off" x="266.67" y="90.083" fill="#64C5E5" stroke="#64C5E5" stroke-miterlimit="10" width="29.946" height="12.132"/>
<rect id="pc_106_off" x="302.62" y="90.083" fill="#64C5E5" stroke="#64C5E5" stroke-miterlimit="10" width="29.946" height="12.132"/>
<rect id="pc_78_off" x="266.67" y="107.22" fill="#64C5E5" stroke="#64C5E5" stroke-miterlimit="10" width="29.946" height="12.132"/>
<rect id="pc_105_off" x="302.62" y="107.22" fill="#64C5E5" stroke="#64C5E5" stroke-miterlimit="10" width="29.946" height="12.132"/>
<rect id="pc_77_off" x="266.67" y="124.35" fill="#64C5E5" stroke="#64C5E5" stroke-miterlimit="10" width="29.946" height="12.132"/>
<rect id="pc_104_off" x="302.62" y="124.35" fill="#64C5E5" stroke="#64C5E5" stroke-miterlimit="10" width="29.946" height="12.132"/>
<rect id="pc_76_off" x="266.67" y="141.48" fill="#64C5E5" stroke="#64C5E5" stroke-miterlimit="10" width="29.946" height="12.132"/>
<rect id="pc_103_off" x="302.62" y="141.48" fill="#64C5E5" stroke="#64C5E5" stroke-miterlimit="10" width="29.946" height="12.132"/>
<rect id="pc_75_off" x="266.67" y="158.61" fill="#64C5E5" stroke="#64C5E5" stroke-miterlimit="10" width="29.946" height="12.132"/>
<rect id="pc_102_off" x="302.62" y="158.61" fill="#64C5E5" stroke="#64C5E5" stroke-miterlimit="10" width="29.946" height="12.132"/>
<rect id="pc_74_off" x="266.67" y="175.74" fill="#64C5E5" stroke="#64C5E5" stroke-miterlimit="10" width="29.946" height="12.132"/>
<rect id="pc_101_off" x="302.62" y="175.74" fill="#64C5E5" stroke="#64C5E5" stroke-miterlimit="10" width="29.946" height="12.132"/>
<rect id="pc_73_off" x="266.67" y="192.88" fill="#64C5E5" stroke="#64C5E5" stroke-miterlimit="10" width="29.946" height="12.132"/>
<rect id="pc_100_off" x="302.62" y="192.88" fill="#64C5E5" stroke="#64C5E5" stroke-miterlimit="10" width="29.946" height="12.132"/>
<rect id="pc_72_off" x="266.471" y="224.01" fill="#64C5E5" stroke="#64C5E5" stroke-miterlimit="10" width="29.945" height="12.132"/>
<rect id="pc_99_off" x="302.42" y="224.01" fill="#64C5E5" stroke="#64C5E5" stroke-miterlimit="10" width="29.946" height="12.132"/>
<rect id="pc_71_off" x="266.471" y="241.14" fill="#64C5E5" stroke="#64C5E5" stroke-miterlimit="10" width="29.945" height="12.132"/>
<rect id="pc_98_off" x="302.42" y="241.14" fill="#64C5E5" stroke="#64C5E5" stroke-miterlimit="10" width="29.946" height="12.132"/>
<rect id="pc_70_off" x="266.471" y="258.27" fill="#64C5E5" stroke="#64C5E5" stroke-miterlimit="10" width="29.945" height="12.132"/>
<rect id="pc_97_off" x="302.42" y="258.27" fill="#64C5E5" stroke="#64C5E5" stroke-miterlimit="10" width="29.946" height="12.132"/>
<rect id="pc_69_off" x="266.471" y="275.4" fill="#64C5E5" stroke="#64C5E5" stroke-miterlimit="10" width="29.945" height="12.132"/>
<rect id="pc_96_off" x="302.42" y="275.4" fill="#64C5E5" stroke="#64C5E5" stroke-miterlimit="10" width="29.946" height="12.132"/>
<rect id="pc_68_off" x="266.471" y="292.53" fill="#64C5E5" stroke="#64C5E5" stroke-miterlimit="10" width="29.945" height="12.132"/>
<rect id="pc_95_off" x="302.42" y="292.53" fill="#64C5E5" stroke="#64C5E5" stroke-miterlimit="10" width="29.946" height="12.132"/>
<rect id="pc_67_off" x="266.471" y="309.67" fill="#64C5E5" stroke="#64C5E5" stroke-miterlimit="10" width="29.945" height="12.132"/>
<rect id="pc_94_off" x="302.42" y="309.67" fill="#64C5E5" stroke="#64C5E5" stroke-miterlimit="10" width="29.946" height="12.132"/>
<rect id="pc_66_off" x="266.67" y="340.8" fill="#64C5E5" stroke="#64C5E5" stroke-miterlimit="10" width="29.946" height="12.134"/>
<rect id="pc_93_off" x="302.62" y="340.8" fill="#64C5E5" stroke="#64C5E5" stroke-miterlimit="10" width="29.946" height="12.134"/>
<rect id="pc_65_off" x="266.67" y="357.93" fill="#64C5E5" stroke="#64C5E5" stroke-miterlimit="10" width="29.946" height="12.131"/>
<rect id="pc_92_off" x="302.62" y="357.93" fill="#64C5E5" stroke="#64C5E5" stroke-miterlimit="10" width="29.946" height="12.131"/>
<rect id="pc_64_off" x="266.67" y="375.061" fill="#64C5E5" stroke="#64C5E5" stroke-miterlimit="10" width="29.946" height="12.133"/>
<rect id="pc_91_off" x="302.62" y="375.061" fill="#64C5E5" stroke="#64C5E5" stroke-miterlimit="10" width="29.946" height="12.133"/>
<rect id="pc_63_off" x="266.67" y="392.189" fill="#64C5E5" stroke="#64C5E5" stroke-miterlimit="10" width="29.946" height="12.131"/>
<rect id="pc_90_off" x="302.62" y="392.189" fill="#64C5E5" stroke="#64C5E5" stroke-miterlimit="10" width="29.946" height="12.131"/>
<rect id="pc_62_off" x="266.67" y="409.32" fill="#64C5E5" stroke="#64C5E5" stroke-miterlimit="10" width="29.946" height="12.133"/>
<rect id="pc_89_off" x="302.62" y="409.32" fill="#64C5E5" stroke="#64C5E5" stroke-miterlimit="10" width="29.946" height="12.133"/>
<rect id="pc_61_off" x="266.67" y="426.46" fill="#64C5E5" stroke="#64C5E5" stroke-miterlimit="10" width="29.946" height="12.131"/>
<rect id="pc_88_off" x="302.62" y="426.46" fill="#64C5E5" stroke="#64C5E5" stroke-miterlimit="10" width="29.946" height="12.131"/>
<rect id="pc_60_off" x="266.721" y="457.59" fill="#64C5E5" stroke="#64C5E5" stroke-miterlimit="10" width="29.945" height="12.133"/>
<rect id="pc_87_off" x="302.67" y="457.59" fill="#64C5E5" stroke="#64C5E5" stroke-miterlimit="10" width="29.946" height="12.133"/>
<rect id="pc_59_off" x="266.721" y="474.72" fill="#64C5E5" stroke="#64C5E5" stroke-miterlimit="10" width="29.945" height="12.131"/>
<rect id="pc_86_off" x="302.67" y="474.72" fill="#64C5E5" stroke="#64C5E5" stroke-miterlimit="10" width="29.946" height="12.131"/>
<rect id="pc_58_off" x="266.721" y="491.85" fill="#64C5E5" stroke="#64C5E5" stroke-miterlimit="10" width="29.945" height="12.135"/>
<rect id="pc_85_off" x="302.67" y="491.85" fill="#64C5E5" stroke="#64C5E5" stroke-miterlimit="10" width="29.946" height="12.135"/>
<rect id="pc_57_off" x="266.721" y="508.98" fill="#64C5E5" stroke="#64C5E5" stroke-miterlimit="10" width="29.945" height="12.131"/>
<rect id="pc_84_off" x="302.67" y="508.98" fill="#64C5E5" stroke="#64C5E5" stroke-miterlimit="10" width="29.946" height="12.131"/>
<rect id="pc_56_off" x="266.721" y="526.12" fill="#64C5E5" stroke="#64C5E5" stroke-miterlimit="10" width="29.945" height="12.133"/>
<rect id="pc_83_off" x="302.67" y="526.12" fill="#64C5E5" stroke="#64C5E5" stroke-miterlimit="10" width="29.946" height="12.133"/>
<rect id="pc_55_off" x="266.721" y="543.25" fill="#64C5E5" stroke="#64C5E5" stroke-miterlimit="10" width="29.945" height="12.131"/>
<rect id="pc_82_off" x="302.67" y="543.25" fill="#64C5E5" stroke="#64C5E5" stroke-miterlimit="10" width="29.946" height="12.131"/>
<line fill="none" stroke="#000000" stroke-width="3" stroke-miterlimit="10" x1="29.513" y1="30.875" x2="29.513" y2="581.25"/>
<line fill="none" stroke="#000000" stroke-width="3" stroke-miterlimit="10" x1="29.513" y1="579.78" x2="448.593" y2="579.78"/>
<line fill="none" stroke="#000000" stroke-width="3" stroke-miterlimit="10" x1="448.593" y1="581.281" x2="448.59" y2="105.77"/>
<line fill="none" stroke="#000000" stroke-width="3" stroke-miterlimit="10" x1="448.593" y1="60.47" x2="448.593" y2="30.874"/>
<line fill="none" stroke="#000000" stroke-width="3" stroke-miterlimit="10" x1="448.593" y1="32.38" x2="29.513" y2="32.38"/>
</svg>
