<?xml version="1.0" encoding="utf-8"?>
<!-- Generator: Adobe Illustrator 16.2.1, SVG Export Plug-In . SVG Version: 6.00 Build 0)  -->
<!DOCTYPE svg PUBLIC "-//W3C//DTD SVG 1.1//EN" "http://www.w3.org/Graphics/SVG/1.1/DTD/svg11.dtd">
<svg version="1.1" id="レイヤー_1" xmlns="http://www.w3.org/2000/svg" xmlns:xlink="http://www.w3.org/1999/xlink" x="0px"
	 y="0px" width="480px" height="650px" viewBox="0 0 480 650" enable-background="new 0 0 480 650" xml:space="preserve">
<text transform="matrix(1 0 0 1 81.5171 473.4502)" font-family="'KozGoPr6N-Regular-83pv-RKSJ-H'" font-size="14">入口</text>
<text transform="matrix(1 0 0 1 203.54 119.3896)" font-family="'KozGoPr6N-Regular-83pv-RKSJ-H'" font-size="12">ホワイトボード</text>
<g id="english_words" display="none">
	
		<text transform="matrix(1 0 0 1 98.5171 530.4502)" display="inline" font-family="'KozGoPr6N-Regular-83pv-RKSJ-H'" font-size="14">Entrance</text>
	
		<text transform="matrix(1 0 0 1 199.0801 159.3896)" display="inline" font-family="'KozGoPr6N-Regular-83pv-RKSJ-H'" font-size="12">White Board</text>
</g>
<rect id="pc_51_off" x="170.32" y="161.97" fill="#64C5E5" stroke="#64C5E5" stroke-miterlimit="10" width="22.664" height="23.111"/>
<rect id="pc_1_off" x="102.99" y="204.08" fill="#64C5E5" stroke="#64C5E5" stroke-miterlimit="10" width="22.664" height="23.111"/>
<rect id="pc_2_off" x="136.65" y="204.08" fill="#64C5E5" stroke="#64C5E5" stroke-miterlimit="10" width="22.664" height="23.111"/>
<rect id="pc_3_off" x="170.32" y="204.08" fill="#64C5E5" stroke="#64C5E5" stroke-miterlimit="10" width="22.664" height="23.111"/>
<rect id="pc_4_off" x="203.98" y="204.08" fill="#64C5E5" stroke="#64C5E5" stroke-miterlimit="10" width="22.664" height="23.111"/>
<rect id="pc_5_off" x="102.99" y="246.19" fill="#64C5E5" stroke="#64C5E5" stroke-miterlimit="10" width="22.664" height="23.111"/>
<rect id="pc_6_off" x="136.65" y="246.19" fill="#64C5E5" stroke="#64C5E5" stroke-miterlimit="10" width="22.664" height="23.111"/>
<rect id="pc_7_off" x="170.32" y="246.19" fill="#64C5E5" stroke="#64C5E5" stroke-miterlimit="10" width="22.664" height="23.111"/>
<rect id="pc_8_off" x="203.98" y="246.19" fill="#64C5E5" stroke="#64C5E5" stroke-miterlimit="10" width="22.664" height="23.111"/>
<rect id="pc_9_off" x="102.99" y="288.3" fill="#64C5E5" stroke="#64C5E5" stroke-miterlimit="10" width="22.664" height="23.111"/>
<rect id="pc_10_off" x="136.65" y="288.3" fill="#64C5E5" stroke="#64C5E5" stroke-miterlimit="10" width="22.664" height="23.111"/>
<rect id="pc_11_off" x="170.32" y="288.3" fill="#64C5E5" stroke="#64C5E5" stroke-miterlimit="10" width="22.664" height="23.111"/>
<rect id="pc_12_off" x="203.98" y="288.3" fill="#64C5E5" stroke="#64C5E5" stroke-miterlimit="10" width="22.664" height="23.111"/>
<rect id="pc_13_off" x="102.99" y="330.41" fill="#64C5E5" stroke="#64C5E5" stroke-miterlimit="10" width="22.664" height="23.111"/>
<rect id="pc_14_off" x="136.65" y="330.41" fill="#64C5E5" stroke="#64C5E5" stroke-miterlimit="10" width="22.664" height="23.111"/>
<rect id="pc_15_off" x="170.32" y="330.41" fill="#64C5E5" stroke="#64C5E5" stroke-miterlimit="10" width="22.664" height="23.111"/>
<rect id="pc_16_off" x="203.98" y="330.41" fill="#64C5E5" stroke="#64C5E5" stroke-miterlimit="10" width="22.664" height="23.111"/>
<rect id="pc_17_off" x="102.99" y="372.52" fill="#64C5E5" stroke="#64C5E5" stroke-miterlimit="10" width="22.664" height="23.11"/>
<rect id="pc_18_off" x="136.65" y="372.52" fill="#64C5E5" stroke="#64C5E5" stroke-miterlimit="10" width="22.664" height="23.11"/>
<rect id="pc_19_off" x="170.32" y="372.52" fill="#64C5E5" stroke="#64C5E5" stroke-miterlimit="10" width="22.664" height="23.11"/>
<rect id="pc_20_off" x="203.98" y="372.52" fill="#64C5E5" stroke="#64C5E5" stroke-miterlimit="10" width="22.664" height="23.11"/>
<rect id="pc_21_off" x="136.65" y="414.641" fill="#64C5E5" stroke="#64C5E5" stroke-miterlimit="10" width="22.664" height="23.11"/>
<rect id="pc_22_off" x="170.32" y="414.641" fill="#64C5E5" stroke="#64C5E5" stroke-miterlimit="10" width="22.664" height="23.11"/>
<rect id="pc_23_off" x="203.98" y="414.641" fill="#64C5E5" stroke="#64C5E5" stroke-miterlimit="10" width="22.664" height="23.11"/>
<rect id="pc_24_off" x="272.93" y="174.8" fill="#64C5E5" stroke="#64C5E5" stroke-miterlimit="10" width="22.664" height="23.111"/>
<rect id="pc_25_off" x="306.59" y="174.8" fill="#64C5E5" stroke="#64C5E5" stroke-miterlimit="10" width="22.664" height="23.111"/>
<rect id="pc_26_off" x="340.26" y="174.8" fill="#64C5E5" stroke="#64C5E5" stroke-miterlimit="10" width="22.664" height="23.111"/>
<rect id="pc_27_off" x="373.92" y="174.8" fill="#64C5E5" stroke="#64C5E5" stroke-miterlimit="10" width="22.664" height="23.111"/>
<rect id="pc_28_off" x="272.93" y="216.91" fill="#64C5E5" stroke="#64C5E5" stroke-miterlimit="10" width="22.664" height="23.111"/>
<rect id="pc_29_off" x="306.59" y="216.91" fill="#64C5E5" stroke="#64C5E5" stroke-miterlimit="10" width="22.664" height="23.111"/>
<rect id="pc_30_off" x="340.26" y="216.91" fill="#64C5E5" stroke="#64C5E5" stroke-miterlimit="10" width="22.664" height="23.111"/>
<rect id="pc_31_off" x="373.92" y="216.91" fill="#64C5E5" stroke="#64C5E5" stroke-miterlimit="10" width="22.664" height="23.111"/>
<rect id="pc_32_off" x="272.93" y="259.02" fill="#64C5E5" stroke="#64C5E5" stroke-miterlimit="10" width="22.664" height="23.111"/>
<rect id="pc_33_off" x="306.59" y="259.02" fill="#64C5E5" stroke="#64C5E5" stroke-miterlimit="10" width="22.664" height="23.111"/>
<rect id="pc_34_off" x="340.26" y="259.02" fill="#64C5E5" stroke="#64C5E5" stroke-miterlimit="10" width="22.664" height="23.111"/>
<rect id="pc_35_off" x="373.92" y="259.02" fill="#64C5E5" stroke="#64C5E5" stroke-miterlimit="10" width="22.664" height="23.111"/>
<rect id="pc_36_off" x="272.92" y="301.13" fill="#64C5E5" stroke="#64C5E5" stroke-width="0.9925" stroke-miterlimit="10" width="22.326" height="23.111"/>
<rect id="pc_37_off" x="306.24" y="301.13" fill="#64C5E5" stroke="#64C5E5" stroke-width="0.9925" stroke-miterlimit="10" width="22.325" height="23.111"/>
<rect id="pc_38_off" x="339.56" y="301.13" fill="#64C5E5" stroke="#64C5E5" stroke-width="0.9925" stroke-miterlimit="10" width="22.326" height="23.111"/>
<rect id="pc_39_off" x="272.93" y="343.24" fill="#64C5E5" stroke="#64C5E5" stroke-miterlimit="10" width="22.664" height="23.111"/>
<rect id="pc_40_off" x="306.59" y="343.24" fill="#64C5E5" stroke="#64C5E5" stroke-miterlimit="10" width="22.664" height="23.111"/>
<rect id="pc_41_off" x="340.26" y="343.24" fill="#64C5E5" stroke="#64C5E5" stroke-miterlimit="10" width="22.664" height="23.111"/>
<rect id="pc_42_off" x="373.92" y="343.24" fill="#64C5E5" stroke="#64C5E5" stroke-miterlimit="10" width="22.664" height="23.111"/>
<rect id="pc_43_off" x="272.93" y="385.35" fill="#64C5E5" stroke="#64C5E5" stroke-miterlimit="10" width="22.664" height="23.111"/>
<rect id="pc_44_off" x="306.59" y="385.35" fill="#64C5E5" stroke="#64C5E5" stroke-miterlimit="10" width="22.664" height="23.111"/>
<rect id="pc_45_off" x="340.26" y="385.35" fill="#64C5E5" stroke="#64C5E5" stroke-miterlimit="10" width="22.664" height="23.111"/>
<rect id="pc_46_off" x="373.92" y="385.35" fill="#64C5E5" stroke="#64C5E5" stroke-miterlimit="10" width="22.664" height="23.111"/>
<rect id="pc_47_off" x="272.93" y="427.46" fill="#64C5E5" stroke="#64C5E5" stroke-miterlimit="10" width="22.664" height="23.111"/>
<rect id="pc_48_off" x="306.59" y="427.46" fill="#64C5E5" stroke="#64C5E5" stroke-miterlimit="10" width="22.664" height="23.111"/>
<rect id="pc_49_off" x="340.26" y="427.46" fill="#64C5E5" stroke="#64C5E5" stroke-miterlimit="10" width="22.664" height="23.111"/>
<rect id="pc_50_off" x="373.92" y="427.46" fill="#64C5E5" stroke="#64C5E5" stroke-miterlimit="10" width="22.664" height="23.111"/>
<line fill="none" stroke="#000000" stroke-width="3" stroke-miterlimit="10" x1="62.429" y1="50.188" x2="62.429" y2="446.96"/>
<line fill="none" stroke="#000000" stroke-width="3" stroke-miterlimit="10" x1="428.659" y1="50.172" x2="428.659" y2="560.969"/>
<line fill="none" stroke="#000000" stroke-width="3" stroke-miterlimit="10" x1="428.659" y1="559.479" x2="62.429" y2="559.479"/>
<line fill="none" stroke="#000000" stroke-width="3" stroke-miterlimit="10" x1="62.429" y1="560.969" x2="62.429" y2="487.22"/>
<line fill="none" stroke="#000000" stroke-width="3" stroke-miterlimit="10" x1="62.429" y1="51.688" x2="428.659" y2="51.688"/>
</svg>
