<?xml version="1.0" encoding="utf-8"?>
<!-- Generator: Adobe Illustrator 16.2.1, SVG Export Plug-In . SVG Version: 6.00 Build 0)  -->
<!DOCTYPE svg PUBLIC "-//W3C//DTD SVG 1.1//EN" "http://www.w3.org/Graphics/SVG/1.1/DTD/svg11.dtd">
<svg version="1.1" id="レイヤー_1" xmlns="http://www.w3.org/2000/svg" xmlns:xlink="http://www.w3.org/1999/xlink" x="0px"
	 y="0px" width="480px" height="720px" viewBox="0 0 480 720" enable-background="new 0 0 480 720" xml:space="preserve">
<g id="japanese_words">
	<text transform="matrix(1 0 0 1 52.8198 102.6104)" fill="#0000FF" font-family="'KozGoPr6N-Regular-83pv-RKSJ-H'" font-size="18">←CD教室</text>
	<text transform="matrix(1 0 0 1 52.8198 122.6104)" fill="#040000" font-family="'KozGoPr6N-Regular-83pv-RKSJ-H'" font-size="18">6:00pm-9:00pm開放</text>
	<text transform="matrix(1 0 0 1 54.1582 506.8496)" fill="#0000FF" font-family="'KozGoPr6N-Regular-83pv-RKSJ-H'" font-size="18">←F教室</text>
	<text transform="matrix(1 0 0 1 220 96.8535)" fill="#0000FF" font-family="'KozGoPr6N-Regular-83pv-RKSJ-H'" font-size="18">リフレッシュルーム→</text>
	<text transform="matrix(1 0 0 1 180 543)" fill="#040000" font-family="'KozGoPr6N-Regular-83pv-RKSJ-H'" font-size="18">中央図書館２F→</text>
</g>
<g id="english_words" display="none">
	
		<text transform="matrix(1 0 0 1 40 119.6104)" display="inline" fill="#0000FF" font-family="'KozGoPr6N-Regular-83pv-RKSJ-H'" font-size="18">←Machine Shop CD</text>
	
		<text transform="matrix(1 0 0 1 40 139.6104)" display="inline" fill="#040000" font-family="'KozGoPr6N-Regular-83pv-RKSJ-H'" font-size="18">6:00pm-9:00pm Open</text>
	
		<text transform="matrix(1 0 0 1 40 523.8496)" display="inline" fill="#0000FF" font-family="'KozGoPr6N-Regular-83pv-RKSJ-H'" font-size="18">←Machine Shop F</text>
	
		<text transform="matrix(1 0 0 1 250 113.8301)" display="inline" fill="#0000FF" font-family="'KozGoPr6N-Regular-83pv-RKSJ-H'" font-size="18">Refresh Room→</text>
	
		<text transform="matrix(1 0 0 1 180 560)" display="inline" fill="#040000" font-family="'KozGoPr6N-Regular-83pv-RKSJ-H'" font-size="18">Library 2F→</text>
</g>
<rect id="pc_34_off" x="83.208" y="130.69" fill="#64C5E5" stroke="#64C5E5" stroke-miterlimit="10" width="24.674" height="16.51"/>
<rect id="pc_35_off" x="97.947" y="151.763" transform="matrix(0.5839 -0.8118 0.8118 0.5839 -82.2943 155.2299)" fill="#64C5E5" stroke="#64C5E5" stroke-miterlimit="10" width="24.675" height="12.265"/>
<rect id="pc_36_off" x="69.364" y="150.453" transform="matrix(-0.6913 -0.7225 0.7225 -0.6913 25.0454 323.8669)" fill="#64C5E5" stroke="#64C5E5" stroke-miterlimit="10" width="24.674" height="12.262"/>
<rect id="pc_39_off" x="77.719" y="226.125" transform="matrix(0.9967 0.0806 -0.0806 0.9967 19.0133 -6.503)" fill="#64C5E5" stroke="#64C5E5" stroke-miterlimit="10" width="24.674" height="12.264"/>
<rect id="pc_37_off" x="64.737" y="203.93" transform="matrix(-0.5349 0.8449 -0.8449 -0.5349 295.7868 257.3057)" fill="#64C5E5" stroke="#64C5E5" stroke-miterlimit="10" width="24.676" height="12.265"/>
<rect id="pc_38_off" x="93.121" y="207.535" transform="matrix(0.6308 0.7759 -0.7759 0.6308 204.7199 -2.9473)" fill="#64C5E5" stroke="#64C5E5" stroke-miterlimit="10" width="24.672" height="12.265"/>
<rect id="pc_41_off" x="83.132" y="294.701" transform="matrix(0.9406 -0.3394 0.3394 0.9406 -96.4359 50.2589)" fill="#64C5E5" stroke="#64C5E5" stroke-miterlimit="10" width="24.673" height="12.264"/>
<rect id="pc_42_off" x="62.116" y="279.889" transform="matrix(-0.0023 1 -1 -0.0023 360.6443 212.2242)" fill="#64C5E5" stroke="#64C5E5" stroke-miterlimit="10" width="24.674" height="12.264"/>
<rect id="pc_40_off" x="84.219" y="271.42" transform="matrix(0.8955 0.445 -0.445 0.8955 133.6044 -13.9707)" fill="#64C5E5" stroke="#64C5E5" stroke-miterlimit="10" width="24.674" height="12.265"/>
<rect id="pc_44_off" x="78.661" y="368.666" transform="matrix(0.0068 -1 1 0.0068 -284.4083 463.2514)" fill="#64C5E5" stroke="#64C5E5" stroke-miterlimit="10" width="24.675" height="12.264"/>
<rect id="pc_45_off" x="57.503" y="383.272" transform="matrix(0.8821 0.471 -0.471 0.8821 191.6501 13.0059)" fill="#64C5E5" stroke="#64C5E5" stroke-miterlimit="10" width="24.674" height="12.263"/>
<rect id="pc_43_off" x="59" y="354.717" transform="matrix(0.7272 -0.6864 0.6864 0.7272 -228.2295 147.4001)" fill="#64C5E5" stroke="#64C5E5" stroke-miterlimit="10" width="24.679" height="12.267"/>
<rect id="pc_46_off" x="83.514" y="431.349" transform="matrix(-0.8481 -0.5299 0.5299 -0.8481 -54.6925 859.2792)" fill="#64C5E5" stroke="#64C5E5" stroke-miterlimit="10" width="24.672" height="12.265"/>
<rect id="pc_47_off" x="84.849" y="457.011" transform="matrix(0.8635 -0.5043 0.5043 0.8635 -220.3033 112.2201)" fill="#64C5E5" stroke="#64C5E5" stroke-miterlimit="10" width="24.674" height="12.264"/>
<rect id="pc_48_off" x="61.298" y="440.777" transform="matrix(-0.2034 -0.9791 0.9791 -0.2034 -348.9552 609.907)" fill="#64C5E5" stroke="#64C5E5" stroke-miterlimit="10" width="24.676" height="12.266"/>
<rect id="pc_50_off" x="86.448" y="538.798" transform="matrix(0.0068 -1 1 0.0068 -446.8033 640.0043)" fill="#64C5E5" stroke="#64C5E5" stroke-miterlimit="10" width="24.676" height="12.264"/>
<rect id="pc_51_off" x="68.546" y="554.399" transform="matrix(0.8267 0.5626 -0.5626 0.8267 329.0728 52.6296)" fill="#64C5E5" stroke="#64C5E5" stroke-miterlimit="10" width="21.103" height="12.265"/>
<rect id="pc_49_off" x="66.759" y="524.854" transform="matrix(0.7273 -0.6863 0.6863 0.7273 -342.8524 199.0801)" fill="#64C5E5" stroke="#64C5E5" stroke-miterlimit="10" width="24.676" height="12.266"/>
<rect id="pc_9_off" x="259.294" y="134.72" transform="matrix(0.9967 0.0806 -0.0806 0.9967 12.2366 -21.4357)" fill="#64C5E5" stroke="#64C5E5" stroke-miterlimit="10" width="24.674" height="12.264"/>
<rect id="pc_7_off" x="246.287" y="112.514" transform="matrix(-0.6718 0.7407 -0.7407 -0.6718 520.2542 6.7778)" fill="#64C5E5" stroke="#64C5E5" stroke-miterlimit="10" width="24.678" height="12.267"/>
<rect id="pc_8_off" x="274.686" y="116.139" transform="matrix(0.6308 0.7759 -0.7759 0.6308 200.8343 -177.5687)" fill="#64C5E5" stroke="#64C5E5" stroke-miterlimit="10" width="24.673" height="12.264"/>
<rect id="pc_2_off" x="338.031" y="124.578" transform="matrix(0.9406 -0.3394 0.3394 0.9406 -23.5658 126.6807)" fill="#64C5E5" stroke="#64C5E5" stroke-miterlimit="10" width="24.672" height="12.263"/>
<rect id="pc_3_off" x="317.023" y="109.764" transform="matrix(0.1806 0.9836 -0.9836 0.1806 383.8725 -228.9794)" fill="#64C5E5" stroke="#64C5E5" stroke-miterlimit="10" width="24.679" height="12.268"/>
<rect id="pc_1_off" x="339.153" y="101.285" transform="matrix(0.8396 0.5432 -0.5432 0.8396 114.7312 -173.7025)" fill="#64C5E5" stroke="#64C5E5" stroke-miterlimit="10" width="24.672" height="12.267"/>
<rect id="pc_16_off" x="229.47" y="165.03" fill="#64C5E5" stroke="#64C5E5" stroke-miterlimit="10" width="24.672" height="12.264"/>
<rect id="pc_17_off" x="244.192" y="186.091" transform="matrix(0.465 -0.8853 0.8853 0.465 -32.9323 329.9477)" fill="#64C5E5" stroke="#64C5E5" stroke-miterlimit="10" width="24.679" height="12.263"/>
<rect id="pc_18_off" x="215.614" y="184.796" transform="matrix(-0.6913 -0.7225 0.7225 -0.6913 247.5939 487.6257)" fill="#64C5E5" stroke="#64C5E5" stroke-miterlimit="10" width="24.675" height="12.264"/>
<rect id="pc_19_off" x="249.681" y="244.708" transform="matrix(-0.9695 0.2451 -0.2451 -0.9695 577.5277 429.8075)" fill="#64C5E5" stroke="#64C5E5" stroke-miterlimit="10" width="24.677" height="12.263"/>
<rect id="pc_20_off" x="271.115" y="259.512" transform="matrix(0.2338 -0.9723 0.9723 0.2338 -41.1051 479.1296)" fill="#64C5E5" stroke="#64C5E5" stroke-miterlimit="10" width="24.676" height="12.267"/>
<rect id="pc_21_off" x="244.1" y="267.26" transform="matrix(-0.8474 -0.531 0.531 -0.8474 328.5787 641.2266)" fill="#64C5E5" stroke="#64C5E5" stroke-miterlimit="10" width="24.678" height="12.267"/>
<rect id="pc_11_off" x="339.846" y="267.808" transform="matrix(0.9194 -0.3933 0.3933 0.9194 -79.3596 160.5937)" fill="#64C5E5" stroke="#64C5E5" stroke-miterlimit="10" width="24.673" height="12.266"/>
<rect id="pc_12_off" x="315.837" y="253.959" transform="matrix(-0.0023 1 -1 -0.0023 589.0181 -67.4854)" fill="#64C5E5" stroke="#64C5E5" stroke-miterlimit="10" width="24.674" height="12.265"/>
<rect id="pc_10_off" x="337.951" y="245.514" transform="matrix(0.8955 0.445 -0.445 0.8955 148.5892 -129.595)" fill="#64C5E5" stroke="#64C5E5" stroke-miterlimit="10" width="24.675" height="12.266"/>
<rect id="pc_22_off" x="277.311" y="326.391" transform="matrix(0.9961 -0.088 0.088 0.9961 -28.1363 26.777)" fill="#64C5E5" stroke="#64C5E5" stroke-miterlimit="10" width="24.677" height="12.265"/>
<rect id="pc_24_off" x="260.777" y="306.68" transform="matrix(-0.4673 0.8841 -0.8841 -0.4673 677.3058 217.5451)" fill="#64C5E5" stroke="#64C5E5" stroke-miterlimit="10" width="24.679" height="12.267"/>
<rect id="pc_23_off" x="289.39" y="305.502" transform="matrix(0.7522 0.6589 -0.6589 0.7522 280.1059 -121.5964)" fill="#64C5E5" stroke="#64C5E5" stroke-miterlimit="10" width="24.677" height="12.264"/>
<rect id="pc_14_off" x="351.559" y="331.097" transform="matrix(0.9406 -0.3394 0.3394 0.9406 -92.8593 143.5321)" fill="#64C5E5" stroke="#64C5E5" stroke-miterlimit="10" width="24.672" height="12.264"/>
<rect id="pc_15_off" x="327.548" y="316.313" transform="matrix(-0.0023 1 -1 -0.0023 663.1087 -16.6991)" fill="#64C5E5" stroke="#64C5E5" stroke-miterlimit="10" width="24.674" height="12.264"/>
<rect id="pc_13_off" x="349.645" y="307.843" transform="matrix(0.8955 0.445 -0.445 0.8955 177.5413 -128.2837)" fill="#64C5E5" stroke="#64C5E5" stroke-miterlimit="10" width="24.676" height="12.266"/>
<rect id="pc_25_off" x="301.059" y="383.634" transform="matrix(0.9785 -0.2061 0.2061 0.9785 -73.6044 72.9616)" fill="#64C5E5" stroke="#64C5E5" stroke-miterlimit="10" width="24.676" height="12.263"/>
<rect id="pc_27_off" x="284.933" y="370.575" transform="matrix(-0.2873 0.9578 -0.9578 -0.2873 743.497 200.1969)" fill="#64C5E5" stroke="#64C5E5" stroke-miterlimit="10" width="24.671" height="12.262"/>
<rect id="pc_26_off" x="309.963" y="361.67" transform="matrix(0.817 0.5766 -0.5766 0.817 271.0572 -118.5413)" fill="#64C5E5" stroke="#64C5E5" stroke-miterlimit="10" width="24.674" height="12.265"/>
<rect id="pc_29_off" x="305.881" y="442.346" transform="matrix(0.9786 -0.206 0.206 0.9786 -85.5584 75.169)" fill="#64C5E5" stroke="#64C5E5" stroke-miterlimit="10" width="24.676" height="12.262"/>
<rect id="pc_30_off" x="288.776" y="426.244" transform="matrix(-0.2873 0.9578 -0.9578 -0.2873 801.7739 268.2033)" fill="#64C5E5" stroke="#64C5E5" stroke-miterlimit="10" width="24.67" height="12.261"/>
<rect id="pc_64_off" x="368.67" y="53.909" fill="#64C5E5" stroke="#64C5E5" stroke-miterlimit="10" width="25.617" height="14.354"/>
<rect id="pc_28_off" x="314.767" y="420.352" transform="matrix(0.817 0.5767 -0.5767 0.817 305.8184 -110.5765)" fill="#64C5E5" stroke="#64C5E5" stroke-miterlimit="10" width="24.678" height="12.265"/>
<rect id="pc_33_off" x="312.529" y="498.345" transform="matrix(0.9992 -0.0409 0.0409 0.9992 -20.3708 13.7159)" fill="#64C5E5" stroke="#64C5E5" stroke-miterlimit="10" width="24.677" height="12.265"/>
<rect id="pc_60_off" x="214.2" y="53.909" fill="#64C5E5" stroke="#64C5E5" stroke-miterlimit="10" width="25.618" height="14.354"/>
<rect id="pc_31_off" x="297.282" y="479.643" transform="matrix(-0.5385 0.8426 -0.8426 -0.5385 885.6765 486.4812)" fill="#64C5E5" stroke="#64C5E5" stroke-miterlimit="10" width="24.675" height="12.264"/>
<rect id="pc_32_off" x="324.924" y="479.118" transform="matrix(0.6373 0.7706 -0.7706 0.6373 496.2668 -83.9006)" fill="#64C5E5" stroke="#64C5E5" stroke-miterlimit="10" width="24.678" height="12.263"/>
<rect id="pc_52_off" x="202.14" y="554.47" fill="#64C5E5" stroke="#64C5E5" stroke-miterlimit="10" width="20.091" height="19.811"/>
<rect id="pc_55_off" x="226.3" y="554.47" fill="#64C5E5" stroke="#64C5E5" stroke-miterlimit="10" width="20.091" height="19.811"/>
<rect id="pc_65_off" x="407.29" y="53.909" fill="#64C5E5" stroke="#64C5E5" stroke-miterlimit="10" width="25.618" height="14.354"/>
<rect id="pc_53_off" x="202.14" y="578.28" fill="#64C5E5" stroke="#64C5E5" stroke-miterlimit="10" width="20.091" height="19.811"/>
<rect id="pc_59_off" x="175.58" y="53.909" fill="#64C5E5" stroke="#64C5E5" stroke-miterlimit="10" width="25.618" height="14.354"/>
<rect id="pc_63_off" x="330.05" y="53.909" fill="#64C5E5" stroke="#64C5E5" stroke-miterlimit="10" width="25.618" height="14.354"/>
<rect id="pc_62_off" x="291.439" y="53.909" fill="#64C5E5" stroke="#64C5E5" stroke-miterlimit="10" width="25.616" height="14.354"/>
<rect id="pc_57_off" x="98.349" y="53.909" fill="#64C5E5" stroke="#64C5E5" stroke-miterlimit="10" width="25.618" height="14.354"/>
<rect id="pc_54_off" x="226.29" y="578.28" fill="#64C5E5" stroke="#64C5E5" stroke-width="0.9508" stroke-miterlimit="10" width="20.091" height="19.811"/>
<rect id="pc_58_off" x="136.97" y="53.909" fill="#64C5E5" stroke="#64C5E5" stroke-miterlimit="10" width="25.618" height="14.354"/>
<rect id="pc_61_off" x="252.82" y="53.909" fill="#64C5E5" stroke="#64C5E5" stroke-miterlimit="10" width="25.617" height="14.354"/>
<rect id="pc_56_off" x="59.731" y="53.909" fill="#64C5E5" stroke="#64C5E5" stroke-miterlimit="10" width="25.618" height="14.354"/>
<rect id="pc_5_off" x="335.865" y="163.867" transform="matrix(-0.8422 -0.5391 0.5391 -0.8422 548.5115 500.9472)" fill="#64C5E5" stroke="#64C5E5" stroke-miterlimit="10" width="23.378" height="12.698"/>
<rect id="pc_4_off" x="314.929" y="172.639" transform="matrix(0.1443 0.9895 -0.9895 0.1443 456.5967 -170.0396)" fill="#64C5E5" stroke="#64C5E5" stroke-miterlimit="10" width="23.374" height="12.695"/>
<rect id="pc_6_off" x="337.889" y="187.233" transform="matrix(-0.9226 0.3858 -0.3858 -0.9226 746.7742 237.3163)" fill="#64C5E5" stroke="#64C5E5" stroke-miterlimit="10" width="23.377" height="12.699"/>
<line fill="none" stroke="#000000" stroke-width="3" stroke-miterlimit="10" x1="29.979" y1="37.5" x2="451.86" y2="37.5"/>
<line fill="none" stroke="#000000" stroke-width="3" stroke-miterlimit="10" x1="451.86" y1="37.5" x2="451.86" y2="75.273"/>
<line fill="none" stroke="#000000" stroke-width="3" stroke-miterlimit="10" x1="29.979" y1="37.5" x2="29.979" y2="69.494"/>
<line fill="none" stroke="#000000" stroke-width="3" stroke-miterlimit="10" x1="29.979" y1="109.75" x2="29.979" y2="474.04"/>
<line fill="none" stroke="#000000" stroke-width="3" stroke-miterlimit="10" x1="29.979" y1="514.3" x2="29.979" y2="673.7"/>
<line fill="none" stroke="#000000" stroke-width="3" stroke-miterlimit="10" x1="29.979" y1="673.7" x2="315.68" y2="673.7"/>
<line fill="none" stroke="#000000" stroke-width="3" stroke-miterlimit="10" x1="315.68" y1="673.7" x2="343.398" y2="562.301"/>
<line fill="none" stroke="#000000" stroke-width="3" stroke-miterlimit="10" x1="355.255" y1="524.5" x2="451.86" y2="127.996"/>
</svg>
