<?xml version="1.0" encoding="UTF-8" standalone="no"?>
<!-- Generator: Adobe Illustrator 16.2.1, SVG Export Plug-In . SVG Version: 6.00 Build 0)  -->
<!DOCTYPE svg  PUBLIC '-//W3C//DTD SVG 1.1//EN'  'http://www.w3.org/Graphics/SVG/1.1/DTD/svg11.dtd'>
<svg id="レイヤー_1" xmlns="http://www.w3.org/2000/svg" xml:space="preserve" height="600px" viewBox="0 0 480 600" width="480px" version="1.1" y="0px" x="0px" xmlns:xlink="http://www.w3.org/1999/xlink" enable-background="new 0 0 480 600">
<path id="wall" d="m220 44l-120 120v250" stroke="#000" stroke-width="3" fill="none"/>
<rect id="pc_1_off" height="21.79" width="28.569" stroke="#64C5E5" stroke-miterlimit="10" y="176.73" x="153.02" fill="#64C5E5"/>
<rect id="pc_2_off" height="21.79" width="28.569" stroke="#64C5E5" stroke-miterlimit="10" y="176.73" x="189.58" fill="#64C5E5"/>
<rect id="pc_3_off" height="21.79" width="28.568" stroke="#64C5E5" stroke-miterlimit="10" y="176.73" x="226.15" fill="#64C5E5"/>
<rect id="pc_4_off" height="21.79" width="28.57" stroke="#64C5E5" stroke-miterlimit="10" y="176.73" x="262.72" fill="#64C5E5"/>
<rect id="pc_5_off" height="21.79" width="28.569" stroke="#64C5E5" stroke-miterlimit="10" y="206.52" x="153.02" fill="#64C5E5"/>
<rect id="pc_6_off" height="21.79" width="28.569" stroke="#64C5E5" stroke-miterlimit="10" y="206.52" x="189.58" fill="#64C5E5"/>
<rect id="pc_7_off" height="21.79" width="28.57" stroke="#64C5E5" stroke-miterlimit="10" y="206.52" x="226.15" fill="#64C5E5"/>
<rect id="pc_8_off" height="21.79" width="28.568" stroke="#64C5E5" stroke-miterlimit="10" y="206.52" x="262.72" fill="#64C5E5"/>
<rect id="pc_9_off" height="21.79" width="28.569" stroke="#64C5E5" stroke-miterlimit="10" y="288.97" x="153.02" fill="#64C5E5"/>
<rect id="pc_10_off" height="21.79" width="28.569" stroke="#64C5E5" stroke-miterlimit="10" y="288.97" x="189.58" fill="#64C5E5"/>
<rect id="pc_11_off" height="21.79" width="28.568" stroke="#64C5E5" stroke-miterlimit="10" y="288.97" x="226.15" fill="#64C5E5"/>
<rect id="pc_12_off" height="21.79" width="28.57" stroke="#64C5E5" stroke-miterlimit="10" y="288.97" x="262.72" fill="#64C5E5"/>
<rect id="pc_13_off" height="21.79" width="28.569" stroke="#64C5E5" stroke-miterlimit="10" y="318.76" x="153.02" fill="#64C5E5"/>
<rect id="pc_14_off" height="21.79" width="28.569" stroke="#64C5E5" stroke-miterlimit="10" y="318.76" x="189.58" fill="#64C5E5"/>
<rect id="pc_15_off" height="21.79" width="28.569" stroke="#64C5E5" stroke-miterlimit="10" y="318.76" x="226.15" fill="#64C5E5"/>
<rect id="pc_16_off" height="21.79" width="28.57" stroke="#64C5E5" stroke-miterlimit="10" y="318.76" x="262.72" fill="#64C5E5"/>
</svg>
