<?xml version="1.0" encoding="utf-8"?>
<!-- Generator: Adobe Illustrator 16.2.1, SVG Export Plug-In . SVG Version: 6.00 Build 0)  -->
<!DOCTYPE svg PUBLIC "-//W3C//DTD SVG 1.1//EN" "http://www.w3.org/Graphics/SVG/1.1/DTD/svg11.dtd">
<svg version="1.1" id="レイヤー_1" xmlns="http://www.w3.org/2000/svg" xmlns:xlink="http://www.w3.org/1999/xlink" x="0px"
	 y="0px" width="480px" height="750px" viewBox="0 0 480 750" enable-background="new 0 0 480 750" xml:space="preserve">
<g id="japanese_words">
	<text transform="matrix(1 0 0 1 93.4028 645)" font-family="'KozGoPr6N-Regular-83pv-RKSJ-H'" font-size="14">入口</text>
</g>
<g id="english_words" display="none">
	<text transform="matrix(1 0 0 1 93.4028 680)" display="inline" font-family="'KozGoPr6N-Regular-83pv-RKSJ-H'" font-size="14">Entrance</text>
</g>
<rect id="pc_1_off" x="365.03" y="77.47" fill="#64C5E5" stroke="#64C5E5" stroke-miterlimit="10" width="28.568" height="21.79"/>
<rect id="pc_2_off" x="365.03" y="114.26" fill="#64C5E5" stroke="#64C5E5" stroke-miterlimit="10" width="28.568" height="21.79"/>
<rect id="pc_3_off" x="365.03" y="151.05" fill="#64C5E5" stroke="#64C5E5" stroke-miterlimit="10" width="28.568" height="21.79"/>
<rect id="pc_4_off" x="365.03" y="187.84" fill="#64C5E5" stroke="#64C5E5" stroke-miterlimit="10" width="28.568" height="21.79"/>
<rect id="pc_5_off" x="365.03" y="224.63" fill="#64C5E5" stroke="#64C5E5" stroke-miterlimit="10" width="28.568" height="21.79"/>
<rect id="pc_6_off" x="365.03" y="261.42" fill="#64C5E5" stroke="#64C5E5" stroke-miterlimit="10" width="28.568" height="21.79"/>
<rect id="pc_7_off" x="365.03" y="327.85" fill="#64C5E5" stroke="#64C5E5" stroke-miterlimit="10" width="28.568" height="21.791"/>
<rect id="pc_8_off" x="365.03" y="364.64" fill="#64C5E5" stroke="#64C5E5" stroke-miterlimit="10" width="28.568" height="21.79"/>
<rect id="pc_9_off" x="365.03" y="401.43" fill="#64C5E5" stroke="#64C5E5" stroke-miterlimit="10" width="28.568" height="21.79"/>
<rect id="pc_10_off" x="365.03" y="438.22" fill="#64C5E5" stroke="#64C5E5" stroke-miterlimit="10" width="28.568" height="21.79"/>
<rect id="pc_11_off" x="365.03" y="475.01" fill="#64C5E5" stroke="#64C5E5" stroke-miterlimit="10" width="28.568" height="21.79"/>
<rect id="pc_12_off" x="365.03" y="511.8" fill="#64C5E5" stroke="#64C5E5" stroke-miterlimit="10" width="28.568" height="21.79"/>
<rect id="pc_13_off" x="365.03" y="548.59" fill="#64C5E5" stroke="#64C5E5" stroke-miterlimit="10" width="28.568" height="21.79"/>
<rect id="pc_14_off" x="365.03" y="585.38" fill="#64C5E5" stroke="#64C5E5" stroke-miterlimit="10" width="28.568" height="21.79"/>
<line fill="none" stroke="#000000" stroke-width="3" stroke-miterlimit="10" x1="62.429" y1="55.188" x2="62.429" y2="645"/>
<line fill="none" stroke="#000000" stroke-width="3" stroke-miterlimit="10" x1="62.429" y1="56.688" x2="428.659" y2="56.688"/>
<line fill="none" stroke="#000000" stroke-width="3" stroke-miterlimit="10" x1="428.659" y1="55.188" x2="428.659" y2="645"/>
</svg>
