<?xml version="1.0" encoding="utf-8"?>
<!-- Generator: Adobe Illustrator 16.2.1, SVG Export Plug-In . SVG Version: 6.00 Build 0)  -->
<!DOCTYPE svg PUBLIC "-//W3C//DTD SVG 1.1//EN" "http://www.w3.org/Graphics/SVG/1.1/DTD/svg11.dtd">
<svg version="1.1" id="レイヤー_1" xmlns="http://www.w3.org/2000/svg" xmlns:xlink="http://www.w3.org/1999/xlink" x="0px"
	 y="0px" width="480px" height="700px" viewBox="0 0 480 700" enable-background="new 0 0 480 700" xml:space="preserve">
<text id="work_0" transform="matrix(1 0 0 1 163.0098 558.7197)" font-family="'KozGoPr6N-Regular-83pv-RKSJ-H'" font-size="14">１０６</text>
<text id="word_1" transform="matrix(1 0 0 1 163.0098 75.29)" font-family="'KozGoPr6N-Regular-83pv-RKSJ-H'" font-size="14">１０１</text>
<text id="word_2" transform="matrix(1 0 0 1 163.0098 162.7598)" font-family="'KozGoPr6N-Regular-83pv-RKSJ-H'" font-size="14">１０２</text>
<text id="word_3" transform="matrix(1 0 0 1 163.2002 262.8398)" font-family="'KozGoPr6N-Regular-83pv-RKSJ-H'" font-size="14">１０３</text>
<text id="word_4" transform="matrix(1 0 0 1 163.0098 358.1504)" font-family="'KozGoPr6N-Regular-83pv-RKSJ-H'" font-size="14">１０４</text>
<text id="word_5" transform="matrix(1 0 0 1 163.0098 452.4297)" font-family="'KozGoPr6N-Regular-83pv-RKSJ-H'" font-size="14">１０５</text>
<rect id="pc_1_off" x="231.91" y="48.08" fill="#64C5E5" stroke="#64C5E5" stroke-miterlimit="10" width="12.688" height="12.041"/>
<rect id="pc_2_off" x="231.91" y="66.08" fill="#64C5E5" stroke="#64C5E5" stroke-miterlimit="10" width="12.688" height="12.041"/>
<rect id="pc_3_off" x="286.5" y="142.08" fill="#64C5E5" stroke="#64C5E5" stroke-miterlimit="10" width="12.688" height="12.041"/>
<rect id="pc_4_off" x="286.5" y="236.08" fill="#64C5E5" stroke="#64C5E5" stroke-miterlimit="10" width="12.688" height="12.041"/>
<rect id="pc_5_off" x="286.5" y="331.08" fill="#64C5E5" stroke="#64C5E5" stroke-miterlimit="10" width="12.688" height="12.041"/>
<rect id="pc_6_off" x="286.5" y="425.08" fill="#64C5E5" stroke="#64C5E5" stroke-miterlimit="10" width="12.688" height="12.04"/>
<line fill="none" stroke="#000000" stroke-miterlimit="10" x1="226.35" y1="40.703" x2="226.35" y2="78.583"/>
<line fill="none" stroke="#000000" stroke-miterlimit="10" x1="226.35" y1="94.583" x2="226.35" y2="98.844"/>
<line fill="none" stroke="#000000" stroke-miterlimit="10" x1="226.35" y1="98.359" x2="306.871" y2="98.359"/>
<line fill="none" stroke="#000000" stroke-miterlimit="10" x1="306.871" y1="98.844" x2="306.871" y2="40.719"/>
<line fill="none" stroke="#000000" stroke-miterlimit="10" x1="306.871" y1="41.216" x2="226.35" y2="41.216"/>
<line fill="none" stroke="#000000" stroke-miterlimit="10" x1="226.35" y1="135.006" x2="226.35" y2="172.886"/>
<line fill="none" stroke="#000000" stroke-miterlimit="10" x1="226.35" y1="188.886" x2="226.35" y2="193.146"/>
<line fill="none" stroke="#000000" stroke-miterlimit="10" x1="226.35" y1="192.662" x2="306.871" y2="192.662"/>
<line fill="none" stroke="#000000" stroke-miterlimit="10" x1="306.871" y1="193.146" x2="306.871" y2="135.021"/>
<line fill="none" stroke="#000000" stroke-miterlimit="10" x1="306.871" y1="135.519" x2="226.35" y2="135.519"/>
<line fill="none" stroke="#000000" stroke-miterlimit="10" x1="226.35" y1="230.573" x2="226.35" y2="268.453"/>
<line fill="none" stroke="#000000" stroke-miterlimit="10" x1="226.35" y1="284.453" x2="226.35" y2="288.713"/>
<line fill="none" stroke="#000000" stroke-miterlimit="10" x1="226.35" y1="288.229" x2="306.871" y2="288.229"/>
<line fill="none" stroke="#000000" stroke-miterlimit="10" x1="306.871" y1="288.713" x2="306.871" y2="230.588"/>
<line fill="none" stroke="#000000" stroke-miterlimit="10" x1="306.871" y1="231.085" x2="226.35" y2="231.085"/>
<line fill="none" stroke="#000000" stroke-miterlimit="10" x1="226.35" y1="323.571" x2="226.35" y2="361.451"/>
<line fill="none" stroke="#000000" stroke-miterlimit="10" x1="226.35" y1="377.451" x2="226.35" y2="381.712"/>
<line fill="none" stroke="#000000" stroke-miterlimit="10" x1="226.35" y1="381.227" x2="306.871" y2="381.227"/>
<line fill="none" stroke="#000000" stroke-miterlimit="10" x1="306.871" y1="381.712" x2="306.871" y2="323.587"/>
<line fill="none" stroke="#000000" stroke-miterlimit="10" x1="306.871" y1="324.084" x2="226.35" y2="324.084"/>
<line fill="none" stroke="#000000" stroke-miterlimit="10" x1="226.35" y1="417.857" x2="226.35" y2="455.737"/>
<line fill="none" stroke="#000000" stroke-miterlimit="10" x1="226.35" y1="471.737" x2="226.35" y2="475.998"/>
<line fill="none" stroke="#000000" stroke-miterlimit="10" x1="226.35" y1="475.514" x2="306.871" y2="475.514"/>
<line fill="none" stroke="#000000" stroke-miterlimit="10" x1="306.871" y1="475.998" x2="306.871" y2="417.873"/>
<line fill="none" stroke="#000000" stroke-miterlimit="10" x1="306.871" y1="418.37" x2="226.35" y2="418.37"/>
<line fill="none" stroke="#000000" stroke-miterlimit="10" x1="226.35" y1="511.984" x2="226.35" y2="556.847"/>
<line fill="none" stroke="#000000" stroke-miterlimit="10" x1="226.35" y1="572.847" x2="226.35" y2="593.126"/>
<line fill="none" stroke="#000000" stroke-miterlimit="10" x1="226.35" y1="592.623" x2="306.871" y2="592.623"/>
<line fill="none" stroke="#000000" stroke-miterlimit="10" x1="306.871" y1="593.084" x2="306.871" y2="511.959"/>
<line fill="none" stroke="#000000" stroke-miterlimit="10" x1="306.871" y1="512.479" x2="226.35" y2="512.479"/>
</svg>
